<?xml version="1.0" encoding="UTF-8" standalone="no"?>
<!-- Created with Inkscape (http://www.inkscape.org/) -->

<svg
   width="800"
   height="800"
   viewBox="0 0 211.66666 211.66667"
   version="1.1"
   id="svg1"
   sodipodi:docname="company_logo.svg"
   inkscape:version="1.3 (0e150ed, 2023-07-21)"
   xmlns:inkscape="http://www.inkscape.org/namespaces/inkscape"
   xmlns:sodipodi="http://sodipodi.sourceforge.net/DTD/sodipodi-0.dtd"
   xmlns="http://www.w3.org/2000/svg"
   xmlns:svg="http://www.w3.org/2000/svg">
  <sodipodi:namedview
     id="namedview1"
     pagecolor="#505050"
     bordercolor="#eeeeee"
     borderopacity="1"
     inkscape:showpageshadow="0"
     inkscape:pageopacity="0"
     inkscape:pagecheckerboard="0"
     inkscape:deskcolor="#d1d1d1"
     inkscape:document-units="mm"
     showguides="true"
     inkscape:zoom="0.48108021"
     inkscape:cx="538.37177"
     inkscape:cy="571.63025"
     inkscape:window-width="1680"
     inkscape:window-height="1050"
     inkscape:window-x="0"
     inkscape:window-y="0"
     inkscape:window-maximized="0"
     inkscape:current-layer="layer1">
    <sodipodi:guide
       position="0,211.66667"
       orientation="1,0"
       id="guide1"
       inkscape:locked="false" />
    <sodipodi:guide
       position="211.66666,211.66667"
       orientation="1,0"
       id="guide2"
       inkscape:locked="false" />
    <sodipodi:guide
       position="211.66666,0"
       orientation="0,-1"
       id="guide3"
       inkscape:locked="false" />
    <sodipodi:guide
       position="186.14958,211.66666"
       orientation="0,-1"
       id="guide4"
       inkscape:locked="false" />
    <sodipodi:guide
       position="105.83332,1.0172526e-05"
       orientation="1,0"
       id="guide5"
       inkscape:locked="false" />
    <sodipodi:guide
       position="211.66665,105.83334"
       orientation="0,-1"
       id="guide6"
       inkscape:locked="false" />
    <sodipodi:guide
       position="323.40282,-77.406615"
       orientation="1,0"
       id="guide7"
       inkscape:locked="false" />
  </sodipodi:namedview>
  <defs
     id="defs1" />
  <g
     inkscape:label="Layer 1"
     inkscape:groupmode="layer"
     id="layer1">
    <path
       id="path4"
       style="fill:#333333;fill-rule:evenodd;stroke-width:0.264583;stroke:none"
       d="M 105.83333 34.282145 A 71.551247 71.551247 0 0 0 34.282145 105.83333 A 71.551247 71.551247 0 0 0 105.83333 177.38452 A 71.551247 71.551247 0 0 0 177.38452 105.83333 A 71.551247 71.551247 0 0 0 105.83333 34.282145 z M 105.83333 52.169942 A 53.663437 53.663437 0 0 1 159.49672 105.83333 A 53.663437 53.663437 0 0 1 105.83333 159.49672 A 53.663437 53.663437 0 0 1 52.169942 105.83333 A 53.663437 53.663437 0 0 1 105.83333 52.169942 z " />
    <path
       d="m 104.94967,73.750537 a 70.509529,82.448306 0 0 0 -5.532483,0.254248 70.509529,82.448306 0 0 0 -5.497855,0.761194 70.509529,82.448306 0 0 0 -5.43016,1.262972 70.509529,82.448306 0 0 0 -5.328357,1.756999 70.509529,82.448306 0 0 0 -5.194515,2.24069 70.509529,82.448306 0 0 0 -5.0276,2.710429 70.509529,82.448306 0 0 0 -1.30793,0.93741 52.916672,61.876601 0 0 0 -0.19327,2.583305 52.916672,61.876601 0 0 0 0.201538,5.392952 52.916672,61.876601 0 0 0 0.602547,5.352129 52.916672,61.876601 0 0 0 0.999422,5.269965 52.916672,61.876601 0 0 0 1.388029,5.148 52.916672,61.876601 0 0 0 1.766301,4.9873 52.916672,61.876601 0 0 0 2.131653,4.78782 52.916672,61.876601 0 0 0 2.480468,4.55269 52.916672,61.876601 0 0 0 2.810165,4.28243 52.916672,61.876601 0 0 0 3.118673,3.98012 52.916672,61.876601 0 0 0 3.403926,3.6468 52.916672,61.876601 0 0 0 3.662309,3.28611 52.916672,61.876601 0 0 0 3.893302,2.90008 52.916672,61.876601 0 0 0 3.892267,2.35696 52.916672,61.876601 0 0 0 3.16157,1.54099 z"
       style="fill:#4d4d4d;fill-rule:evenodd;stroke-width:0.381227"
       id="path15" />
    <circle
       style="fill:none;fill-rule:evenodd;stroke:#ff0000;stroke-width:0.264583"
       id="circle9"
       cx="344.77856"
       cy="151.98016"
       r="50.208813" />
    <path
       id="path7-5"
       style="fill:none;fill-rule:evenodd;stroke:#ff0000;stroke-width:0.381227"
       d="M 368.21318 125.70396 A 70.509529 82.448306 0 0 0 357.18285 126.7194 A 70.509529 82.448306 0 0 0 346.42433 129.73937 A 70.509529 82.448306 0 0 0 336.20222 134.691 A 70.509529 82.448306 0 0 0 334.89429 135.6279 A 52.916672 61.876601 0 0 0 334.70102 138.2112 A 52.916672 61.876601 0 0 0 335.5051 148.95628 A 52.916672 61.876601 0 0 0 337.89255 159.37425 A 52.916672 61.876601 0 0 0 341.79051 169.14937 A 52.916672 61.876601 0 0 0 347.08114 177.98448 A 52.916672 61.876601 0 0 0 353.60374 185.61141 A 52.916672 61.876601 0 0 0 361.15935 191.79811 A 52.916672 61.876601 0 0 0 369.09685 196.12601 A 52.916672 61.876601 0 0 0 377.03435 191.79811 A 52.916672 61.876601 0 0 0 384.59048 185.61141 A 52.916672 61.876601 0 0 0 391.11256 177.98448 A 52.916672 61.876601 0 0 0 396.40319 169.14937 A 52.916672 61.876601 0 0 0 400.30166 159.37425 A 52.916672 61.876601 0 0 0 402.68912 148.95628 A 52.916672 61.876601 0 0 0 403.49268 138.2112 A 52.916672 61.876601 0 0 0 403.45444 136.74152 A 70.509529 82.448306 0 0 0 400.22363 134.69049 A 70.509529 82.448306 0 0 0 396.89205 132.83272 A 70.509529 82.448306 0 0 0 393.48141 131.18062 A 70.509529 82.448306 0 0 0 390.00152 129.73937 A 70.509529 82.448306 0 0 0 386.4622 128.51412 A 70.509529 82.448306 0 0 0 382.87275 127.50591 A 70.509529 82.448306 0 0 0 379.243 126.7194 A 70.509529 82.448306 0 0 0 375.58328 126.15612 A 70.509529 82.448306 0 0 0 371.9034 125.81713 A 70.509529 82.448306 0 0 0 368.21318 125.70396 z M 368.45555 135.36693 A 51.164185 59.827379 0 0 1 371.13342 135.4491 A 51.164185 59.827379 0 0 1 373.80354 135.69508 A 51.164185 59.827379 0 0 1 376.45919 136.10384 A 51.164185 59.827379 0 0 1 379.09314 136.67486 A 51.164185 59.827379 0 0 1 381.69763 137.40608 A 51.164185 59.827379 0 0 1 384.26595 138.29543 A 51.164185 59.827379 0 0 1 386.79138 139.34085 A 51.164185 59.827379 0 0 1 389.26616 140.53974 A 51.164185 59.827379 0 0 1 391.68359 141.88798 A 51.164185 59.827379 0 0 1 394.02815 143.37626 A 38.398191 44.89983 0 0 1 394.05553 144.44286 A 38.398191 44.89983 0 0 1 393.47262 152.2398 A 38.398191 44.89983 0 0 1 391.74043 159.79955 A 38.398191 44.89983 0 0 1 388.91115 166.89266 A 38.398191 44.89983 0 0 1 385.0721 173.30363 A 38.398191 44.89983 0 0 1 380.33958 178.83818 A 38.398191 44.89983 0 0 1 374.85671 183.32731 A 38.398191 44.89983 0 0 1 369.09685 186.46769 A 38.398191 44.89983 0 0 1 363.337 183.32731 A 38.398191 44.89983 0 0 1 357.85464 178.83818 A 38.398191 44.89983 0 0 1 353.1216 173.30363 A 38.398191 44.89983 0 0 1 349.28256 166.89266 A 38.398191 44.89983 0 0 1 346.45379 159.79955 A 38.398191 44.89983 0 0 1 344.72159 152.2398 A 38.398191 44.89983 0 0 1 344.13817 144.44286 A 38.398191 44.89983 0 0 1 344.27821 142.56804 A 51.164185 59.827379 0 0 1 345.22751 141.88798 A 51.164185 59.827379 0 0 1 352.64514 138.29543 A 51.164185 59.827379 0 0 1 360.4519 136.10384 A 51.164185 59.827379 0 0 1 368.45555 135.36693 z " />
    <circle
       style="fill:none;fill-rule:evenodd;stroke:#ff0000;stroke-width:0.264583"
       id="path9"
       cx="358.92767"
       cy="179.88982"
       r="50.208813" />
    <circle
       style="fill:none;fill-rule:evenodd;stroke:#ff0000;stroke-width:0.264583"
       id="circle10"
       cx="393.61829"
       cy="151.67429"
       r="50.208813" />
    <circle
       style="fill:none;fill-rule:evenodd;stroke:#ff0000;stroke-width:0.264583"
       id="circle11"
       cx="368.97516"
       cy="186.14159"
       r="50.208813" />
    <circle
       style="fill:none;fill-rule:evenodd;stroke:#ff0000;stroke-width:0.264583"
       id="circle12"
       cx="385.35703"
       cy="139.17075"
       r="50.208813" />
    <path
       d="m 104.94967,73.750537 v 69.991593 a 52.916672,61.876601 0 0 0 0.88366,0.43047 52.916672,61.876601 0 0 0 4.04523,-1.97146 52.916672,61.876601 0 0 0 3.89227,-2.35696 52.916672,61.876601 0 0 0 3.89331,-2.90008 52.916672,61.876601 0 0 0 3.66282,-3.28611 52.916672,61.876601 0 0 0 3.40341,-3.6468 52.916672,61.876601 0 0 0 3.11867,-3.98012 52.916672,61.876601 0 0 0 2.81017,-4.28243 52.916672,61.876601 0 0 0 2.48047,-4.55269 52.916672,61.876601 0 0 0 2.13165,-4.78782 52.916672,61.876601 0 0 0 1.76682,-4.9873 52.916672,61.876601 0 0 0 1.38803,-5.148 52.916672,61.876601 0 0 0 0.99942,-5.269965 52.916672,61.876601 0 0 0 0.0294,-0.197404 52.916672,61.876601 0 0 0 0.0289,-0.196888 52.916672,61.876601 0 0 0 0.0284,-0.197404 52.916672,61.876601 0 0 0 0.0274,-0.197404 52.916672,61.876601 0 0 0 0.0274,-0.197404 52.916672,61.876601 0 0 0 0.0269,-0.197403 52.916672,61.876601 0 0 0 0.0258,-0.197404 52.916672,61.876601 0 0 0 0.0258,-0.197921 52.916672,61.876601 0 0 0 0.0248,-0.197921 52.916672,61.876601 0 0 0 0.0248,-0.197921 52.916672,61.876601 0 0 0 0.0238,-0.19792 52.916672,61.876601 0 0 0 0.0232,-0.197921 52.916672,61.876601 0 0 0 0.0233,-0.198438 52.916672,61.876601 0 0 0 0.0222,-0.198437 52.916672,61.876601 0 0 0 0.0217,-0.198438 52.916672,61.876601 0 0 0 0.0212,-0.198437 52.916672,61.876601 0 0 0 0.0207,-0.198438 52.916672,61.876601 0 0 0 0.0202,-0.198437 52.916672,61.876601 0 0 0 0.0196,-0.198954 52.916672,61.876601 0 0 0 0.0191,-0.198438 52.916672,61.876601 0 0 0 0.0181,-0.198954 52.916672,61.876601 0 0 0 0.0181,-0.198954 52.916672,61.876601 0 0 0 0.0176,-0.198955 52.916672,61.876601 0 0 0 0.0165,-0.198954 52.916672,61.876601 0 0 0 0.0165,-0.198954 52.916672,61.876601 0 0 0 0.0155,-0.199471 52.916672,61.876601 0 0 0 0.0155,-0.198955 52.916672,61.876601 0 0 0 0.0145,-0.199471 52.916672,61.876601 0 0 0 0.014,-0.198954 52.916672,61.876601 0 0 0 0.0134,-0.199471 52.916672,61.876601 0 0 0 0.0129,-0.199471 52.916672,61.876601 0 0 0 0.0129,-0.199471 52.916672,61.876601 0 0 0 0.0114,-0.199471 52.916672,61.876601 0 0 0 0.0114,-0.199471 52.916672,61.876601 0 0 0 0.0109,-0.199988 52.916672,61.876601 0 0 0 0.0103,-0.199471 52.916672,61.876601 0 0 0 0.01,-0.199471 52.916672,61.876601 0 0 0 0.009,-0.199988 52.916672,61.876601 0 0 0 0.009,-0.199471 52.916672,61.876601 0 0 0 0.008,-0.199987 52.916672,61.876601 0 0 0 0.008,-0.199471 52.916672,61.876601 0 0 0 0.007,-0.199988 52.916672,61.876601 0 0 0 0.006,-0.199988 52.916672,61.876601 0 0 0 0.006,-0.199988 52.916672,61.876601 0 0 0 0.005,-0.199988 52.916672,61.876601 0 0 0 0.005,-0.199471 52.916672,61.876601 0 0 0 0.004,-0.199987 52.916672,61.876601 0 0 0 0.004,-0.199988 52.916672,61.876601 0 0 0 0.003,-0.199988 52.916672,61.876601 0 0 0 0.002,-0.199988 52.916672,61.876601 0 0 0 0.002,-0.199988 52.916672,61.876601 0 0 0 0.002,-0.199987 52.916672,61.876601 0 0 0 5.2e-4,-0.199988 52.916672,61.876601 0 0 0 5.2e-4,-0.199988 52.916672,61.876601 0 0 0 -0.0382,-1.469678 70.509529,82.448306 0 0 0 -3.23081,-2.051037 70.509529,82.448306 0 0 0 -3.33158,-1.857768 70.509529,82.448306 0 0 0 -3.41065,-1.652096 70.509529,82.448306 0 0 0 -3.47989,-1.441255 70.509529,82.448306 0 0 0 -3.53932,-1.225765 70.509529,82.448306 0 0 0 -3.58944,-1.007691 70.509529,82.448306 0 0 0 -3.62976,-0.786515 70.509529,82.448306 0 0 0 -3.65972,-0.563273 70.509529,82.448306 0 0 0 -3.67988,-0.338998 70.509529,82.448306 0 0 0 -3.69021,-0.113171 z"
       style="fill:#333333;fill-rule:evenodd;stroke-width:0.264583"
       id="path14" />
  </g>
</svg>
