<?xml version="1.0" encoding="UTF-8" standalone="no"?>
<!-- Created with Inkscape (http://www.inkscape.org/) -->

<svg
   width="500"
   height="500"
   viewBox="0 0 132.29166 132.29167"
   version="1.1"
   id="svg1"
   inkscape:version="1.3 (0e150ed, 2023-07-21)"
   sodipodi:docname="dummy.svg"
   xmlns:inkscape="http://www.inkscape.org/namespaces/inkscape"
   xmlns:sodipodi="http://sodipodi.sourceforge.net/DTD/sodipodi-0.dtd"
   xmlns="http://www.w3.org/2000/svg"
   xmlns:svg="http://www.w3.org/2000/svg">
  <sodipodi:namedview
     id="namedview1"
     pagecolor="#505050"
     bordercolor="#eeeeee"
     borderopacity="1"
     inkscape:showpageshadow="0"
     inkscape:pageopacity="0"
     inkscape:pagecheckerboard="0"
     inkscape:deskcolor="#d1d1d1"
     inkscape:document-units="mm"
     inkscape:zoom="0.86516311"
     inkscape:cx="293.00833"
     inkscape:cy="247.3522"
     inkscape:window-width="1680"
     inkscape:window-height="1050"
     inkscape:window-x="0"
     inkscape:window-y="0"
     inkscape:window-maximized="0"
     inkscape:current-layer="layer1" />
  <defs
     id="defs1" />
  <g
     inkscape:label="Layer 1"
     inkscape:groupmode="layer"
     id="layer1">
    <path
       id="path3"
       style="fill:#f9f9f9;fill-rule:evenodd;stroke-width:0.264583"
       d="m 92.56033,48.842384 c -0.884061,-0.237269 -1.76713,0.221073 -2.045441,1.372639 0.388173,3.185082 0.59893,6.786599 0.59893,10.891325 0,2.238184 -0.232438,4.421328 -0.656291,6.529317 0.236195,0.231472 1.138899,1.128987 1.384768,1.133404 1.472672,3.44e-4 2.487042,-5.60116 2.486996,-10.591881 -3.9e-5,-4.990519 -0.29635,-9.335149 -1.768962,-9.334804 z"
       sodipodi:nodetypes="ccsccsc" />
    <path
       id="path2"
       style="fill:#f9f9f9;fill-rule:evenodd;stroke-width:0.264583"
       d="m 117.65339,132.29167 c 0,21.70572 -23.364174,39.30169 -52.18535,39.30169 -28.821177,0 -52.185353,-17.59597 -52.185352,-39.30169 10e-7,-36.816922 23.364178,-39.301684 52.185352,-39.301684 28.821173,10e-7 52.18535,3.01498 52.18535,39.301684 z"
       sodipodi:nodetypes="sssss" />
    <path
       id="rect5"
       style="fill:#cccccc;fill-rule:evenodd;stroke-width:0.264583"
       d="m 49.745087,76.408051 h 31.445911 v 20.654286 c -8.571501,17.385273 -18.281031,24.414483 -31.445911,0 z"
       sodipodi:nodetypes="ccccc" />
    <path
       id="path4"
       style="fill:#f9f9f9;fill-rule:evenodd;stroke-width:0.264583"
       d="m 90.584681,61.106167 c 0,17.608947 -14.235688,31.883818 -25.116641,31.883818 -10.240114,0 -25.11664,-14.274872 -25.11664,-31.883818 0,-31.707415 11.245103,-36.665783 25.11664,-36.665783 13.871538,0 25.116641,6.240047 25.116641,36.665783 z"
       sodipodi:nodetypes="sssss" />
    <path
       id="path5"
       style="fill:#f9f9f9;fill-rule:evenodd;stroke-width:0.264583"
       d="m 38.251486,48.842384 c 0.884061,-0.237269 1.76713,0.221073 2.045441,1.372639 -0.388173,3.185082 -0.59893,6.786599 -0.59893,10.891325 0,2.238184 0.232438,4.421328 0.656291,6.529317 -0.236195,0.231472 -1.138899,1.128987 -1.384768,1.133404 -1.472672,3.44e-4 -2.487042,-5.60116 -2.486996,-10.591881 3.9e-5,-4.990519 0.29635,-9.335149 1.768962,-9.334804 z"
       sodipodi:nodetypes="ccsccsc" />
  </g>
</svg>
