<?xml version="1.0" encoding="UTF-8" standalone="no"?>
<!-- Created with Inkscape (http://www.inkscape.org/) -->

<svg
   width="500"
   height="500"
   viewBox="0 0 132.29166 132.29167"
   version="1.1"
   id="svg5"
   inkscape:version="1.3 (0e150ed, 2023-07-21)"
   sodipodi:docname="logo.svg"
   xmlns:inkscape="http://www.inkscape.org/namespaces/inkscape"
   xmlns:sodipodi="http://sodipodi.sourceforge.net/DTD/sodipodi-0.dtd"
   xmlns:xlink="http://www.w3.org/1999/xlink"
   xmlns="http://www.w3.org/2000/svg"
   xmlns:svg="http://www.w3.org/2000/svg">
  <sodipodi:namedview
     id="namedview7"
     pagecolor="#505050"
     bordercolor="#eeeeee"
     borderopacity="1"
     inkscape:showpageshadow="0"
     inkscape:pageopacity="0"
     inkscape:pagecheckerboard="0"
     inkscape:deskcolor="#505050"
     inkscape:document-units="mm"
     showgrid="false"
     inkscape:zoom="1.5337202"
     inkscape:cx="267.97587"
     inkscape:cy="366.42929"
     inkscape:window-width="1680"
     inkscape:window-height="997"
     inkscape:window-x="0"
     inkscape:window-y="25"
     inkscape:window-maximized="0"
     inkscape:current-layer="g314"
     showguides="true">
    <sodipodi:guide
       position="22.227789,94.908567"
       orientation="1,0"
       id="guide866"
       inkscape:locked="false" />
    <sodipodi:guide
       position="113.15965,77.985135"
       orientation="1,0"
       id="guide868"
       inkscape:locked="false" />
    <sodipodi:guide
       position="-64.084952,116.50262"
       orientation="0,-1"
       id="guide880"
       inkscape:locked="false" />
    <sodipodi:guide
       position="-8.9780848,16.195738"
       orientation="0,-1"
       id="guide893"
       inkscape:locked="false" />
  </sodipodi:namedview>
  <defs
     id="defs2">
    <linearGradient
       id="linearGradient1"
       inkscape:collect="always">
      <stop
         style="stop-color:#57d5e4;stop-opacity:1"
         offset="0"
         id="stop1" />
      <stop
         style="stop-color:#008fa0;stop-opacity:1"
         offset="1"
         id="stop2" />
    </linearGradient>
    <linearGradient
       inkscape:collect="always"
       id="linearGradient15809">
      <stop
         style="stop-color:#00acc1;stop-opacity:1;"
         offset="0"
         id="stop15805" />
      <stop
         style="stop-color:#9af4ff;stop-opacity:1;"
         offset="1"
         id="stop15807" />
    </linearGradient>
    <linearGradient
       inkscape:collect="always"
       id="linearGradient15663">
      <stop
         style="stop-color:#008fa0;stop-opacity:1;"
         offset="0"
         id="stop15659" />
      <stop
         style="stop-color:#00acc1;stop-opacity:1"
         offset="1"
         id="stop15661" />
    </linearGradient>
    <linearGradient
       inkscape:collect="always"
       id="linearGradient14877">
      <stop
         style="stop-color:#008fa0;stop-opacity:1"
         offset="0"
         id="stop14873" />
      <stop
         style="stop-color:#00acc1;stop-opacity:1"
         offset="1"
         id="stop14875" />
    </linearGradient>
    <linearGradient
       inkscape:collect="always"
       xlink:href="#linearGradient14877"
       id="linearGradient14879"
       x1="-83.970695"
       y1="173.92693"
       x2="-109.39272"
       y2="236.23172"
       gradientUnits="userSpaceOnUse" />
    <linearGradient
       inkscape:collect="always"
       xlink:href="#linearGradient15663"
       id="linearGradient15665"
       x1="-133.56448"
       y1="166.63371"
       x2="-76.052361"
       y2="110.78862"
       gradientUnits="userSpaceOnUse" />
    <linearGradient
       inkscape:collect="always"
       xlink:href="#linearGradient15809"
       id="linearGradient15811"
       x1="-103.1414"
       y1="179.34473"
       x2="-66.050255"
       y2="144.7541"
       gradientUnits="userSpaceOnUse" />
    <linearGradient
       inkscape:collect="always"
       xlink:href="#linearGradient1"
       id="linearGradient2"
       x1="313.25681"
       y1="99.431"
       x2="312.2236"
       y2="117.16083"
       gradientUnits="userSpaceOnUse" />
  </defs>
  <g
     inkscape:label="Layer 1"
     inkscape:groupmode="layer"
     id="layer1">
    <g
       id="g314"
       inkscape:label="Logo"
       transform="translate(-243.38994,4.2356125)"
       style="fill:#00acc1;fill-opacity:1">
      <g
         id="g3207"
         style="display:none;fill:#00acc1;fill-opacity:1"
         transform="translate(-1.1041666e-6)"
         sodipodi:insensitive="true">
        <path
           id="path308-4"
           style="fill:#00acc1;fill-opacity:1;stroke:none;stroke-width:0.406"
           d="m -46.97676,181.66634 a 40.911148,40.911148 0 0 0 -0.004,-0.31419 40.911148,40.911148 0 0 0 -0.0408,-1.05265 40.911148,40.911148 0 0 0 -0.0677,-1.0511 40.911148,40.911148 0 0 0 -0.0951,-1.04954 40.911148,40.911148 0 0 0 -0.12144,-1.04594 40.911148,40.911148 0 0 0 -0.14883,-1.04334 40.911148,40.911148 0 0 0 -0.1757,-1.0387 40.911148,40.911148 0 0 0 -0.20205,-1.03353 40.911148,40.911148 0 0 0 -0.22893,-1.02836 40.911148,40.911148 0 0 0 -0.25476,-1.02216 40.911148,40.911148 0 0 0 -0.28164,-1.01544 40.911148,40.911148 0 0 0 -0.30747,-1.00769 40.911148,40.911148 0 0 0 -0.33332,-0.99891 40.911148,40.911148 0 0 0 -0.35863,-0.99063 40.911148,40.911148 0 0 0 -0.38447,-0.98082 40.911148,40.911148 0 0 0 -0.40928,-0.971 40.911148,40.911148 0 0 0 -0.43408,-0.95963 40.911148,40.911148 0 0 0 -0.45889,-0.94827 40.911148,40.911148 0 0 0 -0.48318,-0.93637 40.911148,40.911148 0 0 0 -0.50694,-0.92294 40.911148,40.911148 0 0 0 -0.53072,-0.91054 40.911148,40.911148 0 0 0 -0.55397,-0.89607 40.911148,40.911148 0 0 0 -0.57671,-0.88109 40.911148,40.911148 0 0 0 -0.59944,-0.86661 40.911148,40.911148 0 0 0 -0.62116,-0.85059 40.911148,40.911148 0 0 0 -0.64337,-0.83458 40.911148,40.911148 0 0 0 -0.66404,-0.81752 40.911148,40.911148 0 0 0 -0.59014,-0.68885 40.911148,40.911148 0 0 1 7.15873,23.11384 40.911148,40.911148 0 0 1 -6.3686,21.86843 44.96516,44.96516 0 0 0 9.28677,-18.82521 z" />
        <path
           id="path10001-1"
           style="fill:#008fa0;fill-opacity:1;stroke:none;stroke-width:0.406"
           d="m -53.85076,146.13363 a 44.96516,44.96516 0 0 0 -0.71107,-0.80409 44.96516,44.96516 0 0 0 -0.75086,-0.80822 44.96516,44.96516 0 0 0 -0.77049,-0.79013 44.96516,44.96516 0 0 0 -0.79013,-0.77049 44.96516,44.96516 0 0 0 -0.80874,-0.75138 44.96516,44.96516 0 0 0 -0.82631,-0.7307 44.96516,44.96516 0 0 0 -0.84439,-0.71055 44.96516,44.96516 0 0 0 -0.86196,-0.68988 44.96516,44.96516 0 0 0 -0.87798,-0.66818 44.96516,44.96516 0 0 0 -0.89452,-0.64647 44.96516,44.96516 0 0 0 -0.91003,-0.62425 44.96516,44.96516 0 0 0 -0.925,-0.60204 44.96516,44.96516 0 0 0 -0.93948,-0.57877 44.96516,44.96516 0 0 0 -0.95343,-0.55552 44.96516,44.96516 0 0 0 -0.96687,-0.53227 44.96516,44.96516 0 0 0 -0.97978,-0.5085 44.96516,44.96516 0 0 0 -0.99167,-0.48369 44.96516,44.96516 0 0 0 -1.00356,-0.45992 44.96516,44.96516 0 0 0 -1.01389,-0.4346 44.96516,44.96516 0 0 0 -1.02474,-0.40979 44.96516,44.96516 0 0 0 -1.03457,-0.38447 44.96516,44.96516 0 0 0 -1.04386,-0.35915 44.96516,44.96516 0 0 0 -1.05162,-0.33332 44.96516,44.96516 0 0 0 -1.05988,-0.30696 44.96516,44.96516 0 0 0 -1.06763,-0.28163 44.96516,44.96516 0 0 0 -1.07332,-0.25477 44.96516,44.96516 0 0 0 -1.08004,-0.22892 44.96516,44.96516 0 0 0 -1.08469,-0.20154 44.96516,44.96516 0 0 0 -1.08934,-0.1757 44.96516,44.96516 0 0 0 -1.09399,-0.14831 44.96516,44.96516 0 0 0 -1.09657,-0.12144 44.96516,44.96516 0 0 0 -1.09968,-0.0951 44.96516,44.96516 0 0 0 -1.10122,-0.0677 44.96516,44.96516 0 0 0 -1.10329,-0.0403 44.96516,44.96516 0 0 0 -1.1033,-0.0134 44.96516,44.96516 0 0 0 -3.20755,0.1142 44.96516,44.96516 0 0 0 -3.19154,0.34313 44.96516,44.96516 0 0 0 -3.15898,0.56999 44.96516,44.96516 0 0 0 -3.10989,0.79375 44.96516,44.96516 0 0 0 -3.04581,1.0139 44.96516,44.96516 0 0 0 -2.96519,1.22835 44.96516,44.96516 0 0 0 -2.87063,1.4366 44.96516,44.96516 0 0 0 -2.76055,1.63814 44.96516,44.96516 0 0 0 -2.63653,1.83038 44.96516,44.96516 0 0 0 -2.49907,2.01435 44.96516,44.96516 0 0 0 -2.34921,2.18695 44.96516,44.96516 0 0 0 -2.18747,2.34921 44.96516,44.96516 0 0 0 -2.01383,2.49959 44.96516,44.96516 0 0 0 -1.83089,2.63653 44.96516,44.96516 0 0 0 -1.63763,2.76055 44.96516,44.96516 0 0 0 -1.43712,2.87011 44.96516,44.96516 0 0 0 -1.22835,2.96571 44.96516,44.96516 0 0 0 -1.01338,3.04529 44.96516,44.96516 0 0 0 -0.79375,3.11041 44.96516,44.96516 0 0 0 -0.56999,3.15846 44.96516,44.96516 0 0 0 -0.34313,3.19154 44.96516,44.96516 0 0 0 -0.11472,3.20807 44.96516,44.96516 0 0 0 0.1111,3.11712 44.96516,44.96516 0 0 0 0.3266,3.10266 44.96516,44.96516 0 0 0 0.54105,3.07216 44.96516,44.96516 0 0 0 0.75293,3.02721 44.96516,44.96516 0 0 0 0.96118,2.96777 44.96516,44.96516 0 0 0 1.16427,2.8944 44.96516,44.96516 0 0 0 1.36219,2.80603 44.96516,44.96516 0 0 0 0.57671,1.00459 40.911148,40.911148 0 0 1 -4.66948,-18.89549 40.911148,40.911148 0 0 1 40.91119,-40.91119 40.911148,40.911148 0 0 1 33.75247,17.79736 40.911148,40.911148 0 0 1 0.59014,0.68885 40.911148,40.911148 0 0 1 0.66404,0.81752 40.911148,40.911148 0 0 1 0.64337,0.83457 40.911148,40.911148 0 0 1 0.62116,0.8506 40.911148,40.911148 0 0 1 0.59944,0.86661 40.911148,40.911148 0 0 1 0.57671,0.88108 40.911148,40.911148 0 0 1 0.55397,0.89607 40.911148,40.911148 0 0 1 0.53072,0.91054 40.911148,40.911148 0 0 1 0.50694,0.92294 40.911148,40.911148 0 0 1 0.48318,0.93638 40.911148,40.911148 0 0 1 0.45889,0.94826 40.911148,40.911148 0 0 1 0.43408,0.95963 40.911148,40.911148 0 0 1 0.40928,0.971 40.911148,40.911148 0 0 1 0.38447,0.98082 40.911148,40.911148 0 0 1 0.35863,0.99064 40.911148,40.911148 0 0 1 0.33332,0.9989 40.911148,40.911148 0 0 1 0.30747,1.00769 40.911148,40.911148 0 0 1 0.28164,1.01545 40.911148,40.911148 0 0 1 0.25476,1.02216 40.911148,40.911148 0 0 1 0.22893,1.02836 40.911148,40.911148 0 0 1 0.20205,1.03353 40.911148,40.911148 0 0 1 0.1757,1.03869 40.911148,40.911148 0 0 1 0.14883,1.04335 40.911148,40.911148 0 0 1 0.12144,1.04593 40.911148,40.911148 0 0 1 0.0951,1.04955 40.911148,40.911148 0 0 1 0.0677,1.0511 40.911148,40.911148 0 0 1 0.0408,1.05265 40.911148,40.911148 0 0 1 0.004,0.31419 44.96516,44.96516 0 0 0 1.13585,-9.92239 44.96516,44.96516 0 0 0 -8.00985,-25.61033 z" />
        <path
           id="path9999-3"
           style="fill:#00acc1;fill-opacity:1;stroke:none;stroke-width:0.406"
           d="m -90.80613,126.77874 a 44.96516,44.96516 0 0 0 -44.96521,44.96521 44.96516,44.96516 0 0 0 10.42314,28.74812 40.911148,40.911148 0 0 1 -1.69964,-2.97346 44.96516,44.96516 0 0 1 -0.57671,-1.00459 44.96516,44.96516 0 0 1 -1.36219,-2.80603 44.96516,44.96516 0 0 1 -1.16427,-2.8944 44.96516,44.96516 0 0 1 -0.96118,-2.96778 44.96516,44.96516 0 0 1 -0.75293,-3.0272 44.96516,44.96516 0 0 1 -0.54105,-3.07217 44.96516,44.96516 0 0 1 -0.3266,-3.10265 44.96516,44.96516 0 0 1 -0.1111,-3.11712 44.96516,44.96516 0 0 1 0.11472,-3.20808 44.96516,44.96516 0 0 1 0.34313,-3.19153 44.96516,44.96516 0 0 1 0.56999,-3.15847 44.96516,44.96516 0 0 1 0.79375,-3.1104 44.96516,44.96516 0 0 1 1.01338,-3.04529 44.96516,44.96516 0 0 1 1.22835,-2.96571 44.96516,44.96516 0 0 1 1.43712,-2.87011 44.96516,44.96516 0 0 1 1.63763,-2.76056 44.96516,44.96516 0 0 1 1.83089,-2.63653 44.96516,44.96516 0 0 1 2.01383,-2.49959 44.96516,44.96516 0 0 1 2.18747,-2.34921 44.96516,44.96516 0 0 1 2.34921,-2.18694 44.96516,44.96516 0 0 1 2.49907,-2.01435 44.96516,44.96516 0 0 1 2.63653,-1.83038 44.96516,44.96516 0 0 1 2.76055,-1.63814 44.96516,44.96516 0 0 1 2.87063,-1.43661 44.96516,44.96516 0 0 1 2.96519,-1.22835 44.96516,44.96516 0 0 1 3.04581,-1.01389 44.96516,44.96516 0 0 1 3.10989,-0.79375 44.96516,44.96516 0 0 1 3.15898,-0.56999 44.96516,44.96516 0 0 1 3.19154,-0.34313 44.96516,44.96516 0 0 1 3.20755,-0.11421 44.96516,44.96516 0 0 1 1.1033,0.0134 44.96516,44.96516 0 0 1 1.10329,0.0403 44.96516,44.96516 0 0 1 1.10122,0.0677 44.96516,44.96516 0 0 1 1.09968,0.0951 44.96516,44.96516 0 0 1 1.09657,0.12144 44.96516,44.96516 0 0 1 1.09399,0.14831 44.96516,44.96516 0 0 1 1.08934,0.1757 44.96516,44.96516 0 0 1 1.08469,0.20154 44.96516,44.96516 0 0 1 1.08004,0.22893 44.96516,44.96516 0 0 1 1.07332,0.25476 44.96516,44.96516 0 0 1 1.06763,0.28164 44.96516,44.96516 0 0 1 1.05988,0.30696 44.96516,44.96516 0 0 1 1.05162,0.33331 44.96516,44.96516 0 0 1 1.04386,0.35915 44.96516,44.96516 0 0 1 1.03457,0.38448 44.96516,44.96516 0 0 1 1.02474,0.40979 44.96516,44.96516 0 0 1 1.01389,0.4346 44.96516,44.96516 0 0 1 1.00356,0.45992 44.96516,44.96516 0 0 1 0.99167,0.48369 44.96516,44.96516 0 0 1 0.97978,0.5085 44.96516,44.96516 0 0 1 0.96687,0.53226 44.96516,44.96516 0 0 1 0.95343,0.55552 44.96516,44.96516 0 0 1 0.93948,0.57878 44.96516,44.96516 0 0 1 0.925,0.60203 44.96516,44.96516 0 0 1 0.91003,0.62425 44.96516,44.96516 0 0 1 0.89452,0.64647 44.96516,44.96516 0 0 1 0.87798,0.66818 44.96516,44.96516 0 0 1 0.86196,0.68988 44.96516,44.96516 0 0 1 0.84439,0.71055 44.96516,44.96516 0 0 1 0.82631,0.73071 44.96516,44.96516 0 0 1 0.80874,0.75137 44.96516,44.96516 0 0 1 0.79013,0.7705 44.96516,44.96516 0 0 1 0.77049,0.79013 44.96516,44.96516 0 0 1 0.75086,0.80822 44.96516,44.96516 0 0 1 0.71107,0.80409 44.96516,44.96516 0 0 0 -36.95537,-19.3549 z" />
        <path
           id="path310-7"
           style="fill:#008fa0;fill-opacity:1;stroke:none;stroke-width:0.406"
           d="m -69.19039,172.5222 c -0.0468,-0.092 -0.0934,-0.18443 -0.14211,-0.27285 -0.07,-0.12708 -0.14213,-0.2502 -0.21601,-0.37001 -0.0739,-0.1198 -0.14973,-0.23621 -0.22738,-0.34881 -0.0776,-0.1126 -0.15689,-0.22165 -0.23822,-0.32711 -0.0813,-0.10546 -0.16467,-0.20754 -0.2496,-0.30593 -0.0849,-0.0984 -0.17149,-0.19284 -0.25993,-0.28422 -0.0884,-0.0914 -0.17891,-0.17963 -0.27079,-0.26406 -0.0919,-0.0844 -0.18538,-0.16533 -0.2806,-0.24288 -0.0952,-0.0776 -0.19194,-0.15147 -0.29042,-0.22221 -0.0985,-0.0707 -0.19858,-0.13807 -0.30024,-0.20206 -0.10167,-0.064 -0.20478,-0.12459 -0.30954,-0.1819 -0.10477,-0.0573 -0.21107,-0.11157 -0.31885,-0.16226 -0.10777,-0.0507 -0.21744,-0.098 -0.32814,-0.14211 -0.11071,-0.0441 -0.22287,-0.0848 -0.33642,-0.12248 -0.11355,-0.0376 -0.22836,-0.0721 -0.34468,-0.10335 -0.11631,-0.0312 -0.23396,-0.0594 -0.35295,-0.0842 -0.11899,-0.0249 -0.23911,-0.0465 -0.3607,-0.0651 -0.12159,-0.0186 -0.24435,-0.0341 -0.36845,-0.0465 -0.1241,-0.0124 -0.24968,-0.0217 -0.37621,-0.0279 -0.12652,-0.006 -0.25405,-0.009 -0.38292,-0.009 -0.12887,-1e-4 -0.25903,0.003 -0.39016,0.009 -0.13113,0.006 -0.26356,0.015 -0.39687,0.0269 -0.13331,0.0119 -0.26768,0.0266 -0.40308,0.0444 -0.1354,0.0178 -0.27186,0.0384 -0.40928,0.062 -0.13741,0.0236 -0.27562,0.0502 -0.41496,0.0796 -0.13933,0.0294 -0.27946,0.0615 -0.42064,0.0966 -0.14118,0.0351 -0.28339,0.073 -0.42633,0.11369 -0.14294,0.0407 -0.28689,0.0844 -0.4315,0.13074 -0.14462,0.0463 -0.28994,0.0955 -0.43615,0.14728 -0.14621,0.0518 -0.29309,0.10604 -0.4408,0.1633 -0.29543,0.1145 -0.59408,0.24032 -0.89504,0.3762 -0.30096,0.13588 -0.6042,0.28201 -0.91002,0.43873 -0.30582,0.15673 -0.61396,0.32369 -0.92397,0.50075 -0.31002,0.17706 -0.62181,0.36434 -0.93535,0.5612 -0.31354,0.19687 -0.62877,0.40346 -0.94516,0.61961 -0.31639,0.21614 -0.63433,0.44154 -0.95291,0.67644 -0.31858,0.2349 -0.63799,0.47912 -0.95808,0.73225 -0.3201,0.25314 -0.64076,0.51567 -0.9617,0.78652 -0.32095,0.27085 -0.64212,0.55015 -0.96325,0.83819 -0.32113,0.28804 -0.6421,0.58464 -0.96273,0.88935 -0.32064,0.30471 -0.64119,0.61759 -0.96067,0.93845 -0.31947,0.32085 -0.63784,0.64951 -0.95549,0.98598 -0.31765,0.33648 -0.63415,0.68092 -0.9493,1.0325 -0.31515,0.35157 -0.62904,0.71027 -0.94103,1.07642 -0.31199,0.36615 -0.62254,0.73962 -0.93069,1.11983 -0.30816,0.3802 -0.61412,0.76743 -0.91777,1.16117 -0.30366,0.39373 -0.60483,0.7937 -0.90331,1.20044 -0.29848,0.40674 -0.59413,0.81997 -0.88677,1.2392 -0.29264,0.41923 -0.58203,0.8447 -0.86816,1.27589 -0.28613,0.43119 -0.56906,0.8684 -0.84801,1.31103 -0.27895,0.44263 -0.55417,0.89056 -0.82527,1.34411 -0.27111,0.45354 -0.53788,0.91272 -0.80047,1.37666 -0.26259,0.46394 -0.52071,0.93282 -0.77411,1.40663 -0.25341,0.47381 -0.50214,0.95241 -0.74569,1.43557 -0.24356,0.48316 -0.48218,0.97098 -0.71521,1.46296 -0.23302,0.49198 -0.46081,0.988 -0.68264,1.48828 -0.22184,0.50029 -0.43753,1.00451 -0.64751,1.51257 -0.20997,0.50806 -0.41388,1.01999 -0.61133,1.53531 -0.19745,0.51532 -0.38884,1.03444 -0.57309,1.55649 -0.18425,0.52206 -0.36137,1.04735 -0.53175,1.57562 -0.17038,0.52826 -0.33353,1.05923 -0.48938,1.59318 -0.15584,0.53395 -0.30429,1.0706 -0.44493,1.60972 -0.14064,0.53912 -0.27366,1.08095 -0.39843,1.62471 -0.12476,0.54376 -0.24163,1.08923 -0.34985,1.63711 -0.10822,0.54788 -0.20768,1.09803 -0.29869,1.6495 -0.0455,0.27574 -0.0891,0.55184 -0.13022,0.82838 -0.0411,0.27654 -0.0797,0.55368 -0.11627,0.83094 -0.0366,0.27728 -0.0709,0.55457 -0.10284,0.83251 -0.032,0.27795 -0.0616,0.55654 -0.0889,0.83509 -0.0273,0.27855 -0.0524,0.55704 -0.0749,0.83613 -0.006,0.0719 -0.01,0.14405 -0.0155,0.21601 1.05591,0.41401 2.12683,0.78872 3.21066,1.12292 1.08725,0.33538 2.18666,0.62997 3.29592,0.88315 1.10912,0.25325 2.22732,0.46493 3.35225,0.63459 1.12501,0.16952 2.25598,0.2969 3.39049,0.38189 1.13455,0.085 2.27189,0.12762 3.40962,0.12764 1.13771,-2e-5 2.27506,-0.0426 3.40961,-0.12764 1.13451,-0.085 2.26548,-0.21237 3.39049,-0.38189 1.12511,-0.16965 2.24347,-0.38133 3.35276,-0.63459 1.10927,-0.25318 2.20869,-0.54777 3.29593,-0.88315 1.08716,-0.33523 2.1614,-0.71101 3.22047,-1.12654 1.05896,-0.41578 2.10201,-0.87103 3.12694,-1.36478 0.7046,-0.34938 1.40006,-0.71694 2.08566,-1.10225 -13.40295,-12.66938 -18.54108,-21.82657 -10.47946,-37.86176 0,0 4.55861,-3.23167 6.93963,-3.54914 2.38101,-0.31747 2.95279,2.16008 2.95279,2.16008 0,0 0.0638,-0.1238 0.15658,-0.3142 z" />
        <path
           id="path4850-8"
           style="fill:#00acc1;fill-opacity:1;stroke:none;stroke-width:0.406"
           d="m -90.14984,155.71754 c -23.2597,0.0964 -37.16342,36.15769 -30.30977,50.85684 0.44898,0.40211 0.90589,0.79526 1.37046,1.17926 0.88958,0.70941 1.80544,1.3853 2.74556,2.02623 0.9401,0.64095 1.90388,1.24649 2.88923,1.8154 0.98523,0.56879 1.99138,1.10059 3.01636,1.5942 1.0251,0.49376 2.06832,0.94901 3.12746,1.36478 0.003,0.001 0.007,0.002 0.01,0.004 0.005,-0.072 0.01,-0.14409 0.0155,-0.21601 0.0225,-0.27909 0.0476,-0.55758 0.0749,-0.83613 0.0273,-0.27855 0.0569,-0.55714 0.0889,-0.83509 0.032,-0.27794 0.0663,-0.55523 0.10284,-0.83251 0.0366,-0.27726 0.0752,-0.5544 0.11627,-0.83094 0.0411,-0.27654 0.0847,-0.55264 0.13022,-0.82838 0.091,-0.55147 0.19047,-1.10163 0.29869,-1.6495 0.10822,-0.54789 0.22509,-1.09335 0.34985,-1.63711 0.12477,-0.54377 0.25779,-1.08559 0.39843,-1.62471 0.14064,-0.53912 0.28909,-1.07577 0.44493,-1.60972 0.15585,-0.53395 0.319,-1.06492 0.48938,-1.59319 0.17038,-0.52826 0.3475,-1.05356 0.53175,-1.57561 0.18425,-0.52205 0.37564,-1.04118 0.57309,-1.5565 0.19745,-0.51531 0.40136,-1.02724 0.61133,-1.5353 0.20998,-0.50807 0.42567,-1.01229 0.64751,-1.51257 0.22183,-0.50029 0.44962,-0.9963 0.68264,-1.48828 0.23303,-0.49199 0.47165,-0.97981 0.71521,-1.46296 0.24355,-0.48316 0.49228,-0.96176 0.74569,-1.43557 0.2534,-0.47381 0.51152,-0.9427 0.77411,-1.40664 0.26259,-0.46393 0.52936,-0.92311 0.80047,-1.37666 0.2711,-0.45354 0.54632,-0.90147 0.82527,-1.3441 0.27895,-0.44263 0.56188,-0.87984 0.84801,-1.31103 0.28613,-0.43119 0.57552,-0.85667 0.86816,-1.27589 0.29264,-0.41923 0.58829,-0.83246 0.88677,-1.2392 0.29848,-0.40675 0.59965,-0.80671 0.90331,-1.20045 0.30365,-0.39373 0.60961,-0.78096 0.91777,-1.16117 0.30815,-0.3802 0.6187,-0.75367 0.93069,-1.11982 0.31199,-0.36616 0.62588,-0.72485 0.94103,-1.07642 0.31515,-0.35158 0.63165,-0.69602 0.9493,-1.0325 0.31765,-0.33648 0.63602,-0.66513 0.95549,-0.98599 0.31948,-0.32085 0.64003,-0.63373 0.96067,-0.93844 0.32063,-0.30471 0.6416,-0.60131 0.96273,-0.88935 0.32113,-0.28804 0.6423,-0.56734 0.96325,-0.83819 0.32094,-0.27085 0.6416,-0.53338 0.9617,-0.78652 0.32009,-0.25314 0.6395,-0.49735 0.95808,-0.73225 0.31858,-0.23491 0.63652,-0.4603 0.95291,-0.67645 0.31639,-0.21614 0.63162,-0.42274 0.94516,-0.6196 0.31354,-0.19686 0.62533,-0.38415 0.93535,-0.5612 0.31001,-0.17706 0.61815,-0.34402 0.92397,-0.50075 0.30582,-0.15673 0.60906,-0.30285 0.91002,-0.43873 0.30096,-0.13588 0.59961,-0.2617 0.89504,-0.37621 0.14771,-0.0573 0.29459,-0.11148 0.4408,-0.16329 0.14621,-0.0518 0.29153,-0.10098 0.43615,-0.14728 0.14461,-0.0463 0.28856,-0.09 0.4315,-0.13074 0.14294,-0.0407 0.28515,-0.0786 0.42633,-0.11369 0.14118,-0.0351 0.28131,-0.0672 0.42064,-0.0966 0.13934,-0.0294 0.27755,-0.056 0.41496,-0.0796 0.13742,-0.0236 0.27388,-0.0442 0.40928,-0.062 0.1354,-0.0178 0.26977,-0.0326 0.40308,-0.0444 0.13331,-0.0119 0.26574,-0.0209 0.39687,-0.0269 0.13113,-0.006 0.26129,-0.009 0.39016,-0.009 0.12887,1e-4 0.2564,0.003 0.38292,0.009 0.12653,0.006 0.25211,0.0156 0.37621,0.0279 0.1241,0.0123 0.24686,0.0279 0.36845,0.0465 0.12159,0.0186 0.24171,0.0402 0.3607,0.0651 0.11899,0.0249 0.23664,0.053 0.35295,0.0842 0.11632,0.0312 0.23113,0.0657 0.34468,0.10335 0.11355,0.0377 0.22571,0.0783 0.33642,0.12247 0.1107,0.0441 0.22037,0.0914 0.32814,0.14211 0.10778,0.0507 0.21408,0.10496 0.31885,0.16227 0.10476,0.0573 0.20787,0.11791 0.30954,0.1819 0.10166,0.064 0.20175,0.13132 0.30024,0.20205 0.0985,0.0707 0.1952,0.14466 0.29042,0.22221 0.0952,0.0776 0.18873,0.15845 0.2806,0.24288 0.0919,0.0844 0.18234,0.17269 0.27079,0.26407 0.0884,0.0914 0.175,0.18583 0.25993,0.28422 0.0849,0.0984 0.16827,0.20046 0.2496,0.30592 0.0813,0.10546 0.16058,0.21451 0.23822,0.32712 0.0777,0.1126 0.1535,0.229 0.22738,0.34881 0.0739,0.11981 0.14598,0.24293 0.21601,0.37001 0.0487,0.0884 0.0953,0.18088 0.14211,0.27285 0.58118,-1.19246 2.5899,-5.67472 1.22111,-8.13852 -1.58735,-2.85722 -10.20971,-1.43868 -10.20971,-1.43868 0,0 1.6027,-2.7919 -1.85363,-5.06945 -3.53006,-1.50209 -6.91254,-2.17129 -10.11722,-2.15801 z m 3.2489,10.24537 c -5.47435,-0.66825 -3.23202,-1.21349 -8.82831,1.3405 0,0 3.9607,-4.07498 6.26387,-4.44646 2.77759,0.17615 4.81025,1.67727 2.56444,3.10596 z"
           sodipodi:nodetypes="cccsccsccssssssssssssssssssssssssssssssssssssssssssssssssssssssssssssssssssssscsccsccccc" />
      </g>
      <path
         id="path308"
         style="fill:#00acc1;fill-opacity:1;stroke:none;stroke-width:0.406"
         d="m 354.65654,-63.681546 a 40.911148,40.911148 0 0 0 -0.004,-0.314193 40.911148,40.911148 0 0 0 -0.0408,-1.052649 40.911148,40.911148 0 0 0 -0.0677,-1.051098 40.911148,40.911148 0 0 0 -0.0951,-1.049549 40.911148,40.911148 0 0 0 -0.12144,-1.045931 40.911148,40.911148 0 0 0 -0.14883,-1.043347 40.911148,40.911148 0 0 0 -0.1757,-1.038696 40.911148,40.911148 0 0 0 -0.20205,-1.033529 40.911148,40.911148 0 0 0 -0.22893,-1.028361 40.911148,40.911148 0 0 0 -0.25476,-1.02216 40.911148,40.911148 0 0 0 -0.28164,-1.015442 40.911148,40.911148 0 0 0 -0.30747,-1.00769 40.911148,40.911148 0 0 0 -0.33332,-0.998905 40.911148,40.911148 0 0 0 -0.35863,-0.990638 40.911148,40.911148 0 0 0 -0.38447,-0.980818 40.911148,40.911148 0 0 0 -0.40928,-0.971001 40.911148,40.911148 0 0 0 -0.43408,-0.959631 40.911148,40.911148 0 0 0 -0.45889,-0.948262 40.911148,40.911148 0 0 0 -0.48318,-0.936377 40.911148,40.911148 0 0 0 -0.50694,-0.922941 40.911148,40.911148 0 0 0 -0.53072,-0.910539 40.911148,40.911148 0 0 0 -0.55397,-0.896069 40.911148,40.911148 0 0 0 -0.57671,-0.881084 40.911148,40.911148 0 0 0 -0.59944,-0.866613 40.911148,40.911148 0 0 0 -0.62116,-0.850595 40.911148,40.911148 0 0 0 -0.64337,-0.834574 40.911148,40.911148 0 0 0 -0.66404,-0.817521 40.911148,40.911148 0 0 0 -0.59014,-0.688847 40.911148,40.911148 0 0 1 7.15873,23.113835 40.911148,40.911148 0 0 1 -6.3686,21.868432 44.96516,44.96516 0 0 0 9.28677,-18.825207 z" />
      <path
         id="path10001"
         style="fill:#008fa0;fill-opacity:1;stroke:none;stroke-width:0.406"
         d="m 347.78254,-99.214261 a 44.96516,44.96516 0 0 0 -0.71107,-0.804089 44.96516,44.96516 0 0 0 -0.75086,-0.80822 44.96516,44.96516 0 0 0 -0.77049,-0.79013 44.96516,44.96516 0 0 0 -0.79013,-0.77049 44.96516,44.96516 0 0 0 -0.80874,-0.75138 44.96516,44.96516 0 0 0 -0.82631,-0.7307 44.96516,44.96516 0 0 0 -0.84439,-0.71056 44.96516,44.96516 0 0 0 -0.86196,-0.68988 44.96516,44.96516 0 0 0 -0.87798,-0.66817 44.96516,44.96516 0 0 0 -0.89452,-0.64647 44.96516,44.96516 0 0 0 -0.91003,-0.62426 44.96516,44.96516 0 0 0 -0.925,-0.60203 44.96516,44.96516 0 0 0 -0.93948,-0.57877 44.96516,44.96516 0 0 0 -0.95343,-0.55552 44.96516,44.96516 0 0 0 -0.96687,-0.53227 44.96516,44.96516 0 0 0 -0.97978,-0.5085 44.96516,44.96516 0 0 0 -0.99167,-0.48369 44.96516,44.96516 0 0 0 -1.00356,-0.45992 44.96516,44.96516 0 0 0 -1.01389,-0.4346 44.96516,44.96516 0 0 0 -1.02474,-0.40979 44.96516,44.96516 0 0 0 -1.03457,-0.38447 44.96516,44.96516 0 0 0 -1.04386,-0.35916 44.96516,44.96516 0 0 0 -1.05162,-0.33331 44.96516,44.96516 0 0 0 -1.05988,-0.30696 44.96516,44.96516 0 0 0 -1.06763,-0.28163 44.96516,44.96516 0 0 0 -1.07332,-0.25477 44.96516,44.96516 0 0 0 -1.08004,-0.22892 44.96516,44.96516 0 0 0 -1.08469,-0.20154 44.96516,44.96516 0 0 0 -1.08934,-0.1757 44.96516,44.96516 0 0 0 -1.09399,-0.14831 44.96516,44.96516 0 0 0 -1.09657,-0.12144 44.96516,44.96516 0 0 0 -1.09968,-0.0951 44.96516,44.96516 0 0 0 -1.10122,-0.0677 44.96516,44.96516 0 0 0 -1.10329,-0.0403 44.96516,44.96516 0 0 0 -1.1033,-0.0134 44.96516,44.96516 0 0 0 -3.20755,0.1142 44.96516,44.96516 0 0 0 -3.19154,0.34313 44.96516,44.96516 0 0 0 -3.15898,0.56999 44.96516,44.96516 0 0 0 -3.10989,0.79375 44.96516,44.96516 0 0 0 -3.04581,1.0139 44.96516,44.96516 0 0 0 -2.96519,1.22834 44.96516,44.96516 0 0 0 -2.87063,1.43661 44.96516,44.96516 0 0 0 -2.76055,1.63814 44.96516,44.96516 0 0 0 -2.63653,1.83038 44.96516,44.96516 0 0 0 -2.49907,2.01435 44.96516,44.96516 0 0 0 -2.34921,2.18695 44.96516,44.96516 0 0 0 -2.18747,2.349206 44.96516,44.96516 0 0 0 -2.01383,2.499589 44.96516,44.96516 0 0 0 -1.83089,2.636532 44.96516,44.96516 0 0 0 -1.63763,2.760555 44.96516,44.96516 0 0 0 -1.43712,2.870109 44.96516,44.96516 0 0 0 -1.22835,2.96571 44.96516,44.96516 0 0 0 -1.01338,3.045293 44.96516,44.96516 0 0 0 -0.79375,3.110404 44.96516,44.96516 0 0 0 -0.56999,3.158464 44.96516,44.96516 0 0 0 -0.34313,3.191536 44.96516,44.96516 0 0 0 -0.11472,3.208073 44.96516,44.96516 0 0 0 0.1111,3.117122 44.96516,44.96516 0 0 0 0.3266,3.102653 44.96516,44.96516 0 0 0 0.54105,3.072164 44.96516,44.96516 0 0 0 0.75293,3.027206 44.96516,44.96516 0 0 0 0.96118,2.967777 44.96516,44.96516 0 0 0 1.16427,2.894397 44.96516,44.96516 0 0 0 1.36219,2.80603 44.96516,44.96516 0 0 0 0.57671,1.00459 40.911148,40.911148 0 0 1 -4.66948,-18.895487 40.911148,40.911148 0 0 1 40.91119,-40.911203 40.911148,40.911148 0 0 1 33.75247,17.797368 40.911148,40.911148 0 0 1 0.59014,0.688847 40.911148,40.911148 0 0 1 0.66404,0.817521 40.911148,40.911148 0 0 1 0.64337,0.834574 40.911148,40.911148 0 0 1 0.62116,0.850595 40.911148,40.911148 0 0 1 0.59944,0.866613 40.911148,40.911148 0 0 1 0.57671,0.881084 40.911148,40.911148 0 0 1 0.55397,0.896069 40.911148,40.911148 0 0 1 0.53072,0.910539 40.911148,40.911148 0 0 1 0.50694,0.922941 40.911148,40.911148 0 0 1 0.48318,0.936377 40.911148,40.911148 0 0 1 0.45889,0.948262 40.911148,40.911148 0 0 1 0.43408,0.959631 40.911148,40.911148 0 0 1 0.40928,0.971001 40.911148,40.911148 0 0 1 0.38447,0.980818 40.911148,40.911148 0 0 1 0.35863,0.990638 40.911148,40.911148 0 0 1 0.33332,0.998905 40.911148,40.911148 0 0 1 0.30747,1.00769 40.911148,40.911148 0 0 1 0.28164,1.015442 40.911148,40.911148 0 0 1 0.25476,1.02216 40.911148,40.911148 0 0 1 0.22893,1.028361 40.911148,40.911148 0 0 1 0.20205,1.033529 40.911148,40.911148 0 0 1 0.1757,1.038696 40.911148,40.911148 0 0 1 0.14883,1.043347 40.911148,40.911148 0 0 1 0.12144,1.045931 40.911148,40.911148 0 0 1 0.0951,1.049549 40.911148,40.911148 0 0 1 0.0677,1.051098 40.911148,40.911148 0 0 1 0.0408,1.052649 40.911148,40.911148 0 0 1 0.004,0.314193 44.96516,44.96516 0 0 0 1.13585,-9.922392 44.96516,44.96516 0 0 0 -8.00985,-25.610323 z" />
      <path
         id="path9999"
         style="fill:#00acc1;fill-opacity:1;stroke:none;stroke-width:0.406"
         d="m 310.82717,-118.56915 a 44.96516,44.96516 0 0 0 -44.96521,44.965212 44.96516,44.96516 0 0 0 10.42314,28.748116 40.911148,40.911148 0 0 1 -1.69964,-2.973462 44.96516,44.96516 0 0 1 -0.57671,-1.00459 44.96516,44.96516 0 0 1 -1.36219,-2.80603 44.96516,44.96516 0 0 1 -1.16427,-2.894397 44.96516,44.96516 0 0 1 -0.96118,-2.967777 44.96516,44.96516 0 0 1 -0.75293,-3.027206 44.96516,44.96516 0 0 1 -0.54105,-3.072164 44.96516,44.96516 0 0 1 -0.3266,-3.102653 44.96516,44.96516 0 0 1 -0.1111,-3.117122 44.96516,44.96516 0 0 1 0.11472,-3.208073 44.96516,44.96516 0 0 1 0.34313,-3.191536 44.96516,44.96516 0 0 1 0.56999,-3.158464 44.96516,44.96516 0 0 1 0.79375,-3.110404 44.96516,44.96516 0 0 1 1.01338,-3.045293 44.96516,44.96516 0 0 1 1.22835,-2.96571 44.96516,44.96516 0 0 1 1.43712,-2.870109 44.96516,44.96516 0 0 1 1.63763,-2.760555 44.96516,44.96516 0 0 1 1.83089,-2.636532 44.96516,44.96516 0 0 1 2.01383,-2.499589 44.96516,44.96516 0 0 1 2.18747,-2.349212 44.96516,44.96516 0 0 1 2.34921,-2.18695 44.96516,44.96516 0 0 1 2.49907,-2.01434 44.96516,44.96516 0 0 1 2.63653,-1.83038 44.96516,44.96516 0 0 1 2.76055,-1.63814 44.96516,44.96516 0 0 1 2.87063,-1.43661 44.96516,44.96516 0 0 1 2.96519,-1.22835 44.96516,44.96516 0 0 1 3.04581,-1.01389 44.96516,44.96516 0 0 1 3.10989,-0.79375 44.96516,44.96516 0 0 1 3.15898,-0.56999 44.96516,44.96516 0 0 1 3.19154,-0.34313 44.96516,44.96516 0 0 1 3.20755,-0.11421 44.96516,44.96516 0 0 1 1.1033,0.0134 44.96516,44.96516 0 0 1 1.10329,0.0403 44.96516,44.96516 0 0 1 1.10122,0.0677 44.96516,44.96516 0 0 1 1.09968,0.0951 44.96516,44.96516 0 0 1 1.09657,0.12144 44.96516,44.96516 0 0 1 1.09399,0.14831 44.96516,44.96516 0 0 1 1.08934,0.1757 44.96516,44.96516 0 0 1 1.08469,0.20154 44.96516,44.96516 0 0 1 1.08004,0.22893 44.96516,44.96516 0 0 1 1.07332,0.25476 44.96516,44.96516 0 0 1 1.06763,0.28164 44.96516,44.96516 0 0 1 1.05988,0.30696 44.96516,44.96516 0 0 1 1.05162,0.33331 44.96516,44.96516 0 0 1 1.04386,0.35915 44.96516,44.96516 0 0 1 1.03457,0.38447 44.96516,44.96516 0 0 1 1.02474,0.4098 44.96516,44.96516 0 0 1 1.01389,0.4346 44.96516,44.96516 0 0 1 1.00356,0.45992 44.96516,44.96516 0 0 1 0.99167,0.48369 44.96516,44.96516 0 0 1 0.97978,0.5085 44.96516,44.96516 0 0 1 0.96687,0.53226 44.96516,44.96516 0 0 1 0.95343,0.55552 44.96516,44.96516 0 0 1 0.93948,0.57878 44.96516,44.96516 0 0 1 0.925,0.60203 44.96516,44.96516 0 0 1 0.91003,0.62425 44.96516,44.96516 0 0 1 0.89452,0.64647 44.96516,44.96516 0 0 1 0.87798,0.66818 44.96516,44.96516 0 0 1 0.86196,0.68988 44.96516,44.96516 0 0 1 0.84439,0.71055 44.96516,44.96516 0 0 1 0.82631,0.73071 44.96516,44.96516 0 0 1 0.80874,0.75137 44.96516,44.96516 0 0 1 0.79013,0.7705 44.96516,44.96516 0 0 1 0.77049,0.79013 44.96516,44.96516 0 0 1 0.75086,0.80822 44.96516,44.96516 0 0 1 0.71107,0.804085 44.96516,44.96516 0 0 0 -36.95537,-19.354895 z" />
      <path
         id="path310"
         style="fill:#008fa0;fill-opacity:1;stroke:none;stroke-width:0.406"
         d="m 332.44291,-72.825691 c -0.0468,-0.09196 -0.0934,-0.184434 -0.14211,-0.272851 -0.07,-0.127079 -0.14213,-0.250197 -0.21601,-0.370004 -0.0739,-0.119807 -0.14973,-0.236214 -0.22738,-0.348816 -0.0776,-0.112601 -0.15689,-0.221651 -0.23822,-0.327111 -0.0813,-0.105461 -0.16467,-0.207539 -0.2496,-0.305925 -0.0849,-0.09839 -0.17149,-0.192844 -0.25993,-0.28422 -0.0884,-0.09138 -0.17891,-0.179635 -0.27079,-0.264067 -0.0919,-0.08443 -0.18538,-0.165327 -0.2806,-0.242879 -0.0952,-0.07755 -0.19194,-0.15147 -0.29042,-0.222209 -0.0985,-0.07074 -0.19858,-0.138064 -0.30024,-0.202055 -0.10167,-0.06399 -0.20478,-0.124594 -0.30954,-0.181901 -0.10477,-0.05731 -0.21107,-0.111574 -0.31885,-0.162264 -0.10777,-0.05069 -0.21744,-0.09797 -0.32814,-0.14211 -0.11071,-0.04414 -0.22287,-0.08482 -0.33642,-0.122473 -0.11355,-0.03765 -0.22836,-0.07212 -0.34468,-0.103353 -0.11631,-0.03123 -0.23396,-0.05936 -0.35295,-0.08423 -0.11899,-0.02487 -0.23911,-0.04653 -0.3607,-0.06511 -0.12159,-0.01858 -0.24435,-0.03415 -0.36845,-0.04651 -0.1241,-0.01236 -0.24968,-0.02171 -0.37621,-0.02791 -0.12652,-0.0062 -0.25405,-0.0092 -0.38292,-0.0093 -0.12887,-1e-4 -0.25903,0.0029 -0.39016,0.0088 -0.13113,0.0059 -0.26356,0.01498 -0.39687,0.02687 -0.13331,0.01189 -0.26768,0.02665 -0.40308,0.04444 -0.1354,0.01779 -0.27186,0.03839 -0.40928,0.06201 -0.13741,0.02363 -0.27562,0.05019 -0.41496,0.07958 -0.13933,0.02939 -0.27946,0.06154 -0.42064,0.09664 -0.14118,0.0351 -0.28339,0.07296 -0.42633,0.113688 -0.14294,0.04073 -0.28689,0.08444 -0.4315,0.130742 -0.14462,0.04631 -0.28994,0.09547 -0.43615,0.147278 -0.14621,0.05181 -0.29309,0.106044 -0.4408,0.163297 -0.29543,0.114506 -0.59408,0.240325 -0.89504,0.376205 -0.30096,0.135879 -0.6042,0.282003 -0.91002,0.438733 -0.30582,0.156729 -0.61396,0.323687 -0.92397,0.500744 -0.31002,0.177057 -0.62181,0.364345 -0.93535,0.561206 -0.31354,0.196861 -0.62877,0.403458 -0.94516,0.619601 -0.31639,0.216143 -0.63433,0.441542 -0.95291,0.676444 -0.31858,0.234902 -0.63799,0.479117 -0.95808,0.732255 -0.3201,0.253138 -0.64076,0.515664 -0.9617,0.786515 -0.32095,0.270852 -0.64212,0.550151 -0.96325,0.838192 -0.32113,0.288042 -0.6421,0.584643 -0.96273,0.889352 -0.32064,0.304709 -0.64119,0.61759 -0.96067,0.938444 -0.31947,0.320853 -0.63784,0.64951 -0.95549,0.985986 -0.31765,0.336475 -0.63415,0.68092 -0.9493,1.032495 -0.31515,0.351575 -0.62904,0.710269 -0.94103,1.07642 -0.31199,0.366151 -0.62254,0.739624 -0.93069,1.119828 -0.30816,0.380205 -0.61412,0.767435 -0.91777,1.16117 -0.30366,0.393735 -0.60483,0.793701 -0.90331,1.200443 -0.29848,0.406743 -0.59413,0.819974 -0.88677,1.239201 -0.29264,0.419227 -0.58203,0.844702 -0.86816,1.275891 -0.28613,0.43119 -0.56906,0.868403 -0.84801,1.311031 -0.27895,0.442629 -0.55417,0.89056 -0.82527,1.344104 -0.27111,0.453545 -0.53788,0.912722 -0.80047,1.376661 -0.26259,0.463938 -0.52071,0.932823 -0.77411,1.406632 -0.25341,0.473809 -0.50214,0.952415 -0.74569,1.435571 -0.24356,0.483157 -0.48218,0.970978 -0.71521,1.46296 -0.23302,0.491982 -0.46081,0.987997 -0.68264,1.488281 -0.22184,0.500284 -0.43753,1.004506 -0.64751,1.51257 -0.20997,0.508063 -0.41388,1.019987 -0.61133,1.535306 -0.19745,0.51532 -0.38884,1.034441 -0.57309,1.556495 -0.18425,0.522053 -0.36137,1.04735 -0.53175,1.575614 -0.17038,0.528264 -0.33353,1.059232 -0.48938,1.593184 -0.15584,0.533953 -0.30429,1.070604 -0.44493,1.609721 -0.14064,0.539118 -0.27366,1.080947 -0.39843,1.624707 -0.12476,0.54376 -0.24163,1.08923 -0.34985,1.63711 -0.10822,0.547879 -0.20768,1.098035 -0.29869,1.649503 -0.0455,0.27574 -0.0891,0.551837 -0.13022,0.828377 -0.0411,0.276537 -0.0797,0.553677 -0.11627,0.830944 -0.0366,0.27728 -0.0709,0.55457 -0.10284,0.83251 -0.032,0.27795 -0.0616,0.55654 -0.0889,0.83509 -0.0273,0.27855 -0.0524,0.55704 -0.0749,0.83613 -0.006,0.0719 -0.01,0.14405 -0.0155,0.21601 1.05591,0.41401 2.12683,0.78872 3.21066,1.12292 1.08725,0.33538 2.18666,0.62997 3.29592,0.88315 1.10912,0.25325 2.22732,0.46493 3.35225,0.634587 1.12501,0.16952 2.25598,0.2969 3.39049,0.38189 1.13455,0.085 2.27189,0.12762 3.40962,0.12764 1.13771,-2e-5 2.27506,-0.0426 3.40961,-0.12764 1.13451,-0.085 2.26548,-0.21237 3.39049,-0.38189 1.12511,-0.169647 2.24347,-0.381327 3.35276,-0.634587 1.10927,-0.25318 2.20869,-0.54777 3.29593,-0.88315 1.08716,-0.33523 2.1614,-0.71101 3.22047,-1.12654 1.05896,-0.41578 2.10201,-0.87103 3.12694,-1.36478 0.7046,-0.34938 1.40006,-0.71694 2.08566,-1.10225 -13.40295,-12.669378 -18.54108,-21.826576 -10.47946,-37.861764 0,0 4.55861,-3.231667 6.93963,-3.549137 2.38101,-0.31747 2.95279,2.160075 2.95279,2.160075 0,0 0.0638,-0.123793 0.15658,-0.314193 z" />
      <path
         id="path4850"
         style="fill:#00acc1;fill-opacity:1;stroke:none;stroke-width:0.406"
         d="m 311.48346,-89.63035 c -23.2597,0.09636 -37.16342,36.157694 -30.30977,50.856844 0.44898,0.4021 0.90589,0.795258 1.37046,1.179256 0.88958,0.70941 1.80544,1.385295 2.74556,2.026233 0.9401,0.640948 1.90388,1.246485 2.88923,1.815392 0.98523,0.568797 1.99138,1.100597 3.01636,1.594207 1.0251,0.49376 2.06832,0.94901 3.12746,1.36478 0.003,0.001 0.007,0.002 0.01,0.004 0.005,-0.072 0.01,-0.14409 0.0155,-0.21601 0.0225,-0.27909 0.0476,-0.55758 0.0749,-0.83613 0.0273,-0.27855 0.0569,-0.55714 0.0889,-0.83509 0.032,-0.27794 0.0663,-0.55523 0.10284,-0.83251 0.0366,-0.277267 0.0752,-0.554407 0.11627,-0.830944 0.0411,-0.27654 0.0847,-0.552637 0.13022,-0.828377 0.091,-0.551472 0.19047,-1.101628 0.29869,-1.649507 0.10822,-0.54788 0.22509,-1.09335 0.34985,-1.63711 0.12477,-0.54376 0.25779,-1.085589 0.39843,-1.624707 0.14064,-0.539117 0.28909,-1.075768 0.44493,-1.609721 0.15585,-0.533952 0.319,-1.06492 0.48938,-1.593184 0.17038,-0.528264 0.3475,-1.053561 0.53175,-1.575614 0.18425,-0.522054 0.37564,-1.041175 0.57309,-1.556495 0.19745,-0.515319 0.40136,-1.027243 0.61133,-1.535306 0.20998,-0.508064 0.42567,-1.012286 0.64751,-1.51257 0.22183,-0.500284 0.44962,-0.996299 0.68264,-1.488281 0.23303,-0.491982 0.47165,-0.979803 0.71521,-1.46296 0.24355,-0.483156 0.49228,-0.961762 0.74569,-1.435571 0.2534,-0.473809 0.51152,-0.942694 0.77411,-1.406632 0.26259,-0.463939 0.52936,-0.923116 0.80047,-1.376661 0.2711,-0.453544 0.54632,-0.901475 0.82527,-1.344104 0.27895,-0.442628 0.56188,-0.879841 0.84801,-1.311031 0.28613,-0.431189 0.57552,-0.856664 0.86816,-1.275891 0.29264,-0.419227 0.58829,-0.832458 0.88677,-1.239201 0.29848,-0.406742 0.59965,-0.806708 0.90331,-1.200443 0.30365,-0.393735 0.60961,-0.780965 0.91777,-1.16117 0.30815,-0.380204 0.6187,-0.753677 0.93069,-1.119828 0.31199,-0.366151 0.62588,-0.724845 0.94103,-1.07642 0.31515,-0.351575 0.63165,-0.69602 0.9493,-1.032495 0.31765,-0.336476 0.63602,-0.665133 0.95549,-0.985986 0.31948,-0.320854 0.64003,-0.633735 0.96067,-0.938444 0.32063,-0.304709 0.6416,-0.60131 0.96273,-0.889352 0.32113,-0.288041 0.6423,-0.56734 0.96325,-0.838192 0.32094,-0.270851 0.6416,-0.533377 0.9617,-0.786515 0.32009,-0.253138 0.6395,-0.497353 0.95808,-0.732255 0.31858,-0.234902 0.63652,-0.460301 0.95291,-0.676444 0.31639,-0.216143 0.63162,-0.42274 0.94516,-0.619601 0.31354,-0.196861 0.62533,-0.384149 0.93535,-0.561206 0.31001,-0.177057 0.61815,-0.344015 0.92397,-0.500744 0.30582,-0.15673 0.60906,-0.302854 0.91002,-0.438733 0.30096,-0.13588 0.59961,-0.261699 0.89504,-0.376205 0.14771,-0.05725 0.29459,-0.111486 0.4408,-0.163297 0.14621,-0.05181 0.29153,-0.100973 0.43615,-0.147278 0.14461,-0.0463 0.28856,-0.09001 0.4315,-0.130742 0.14294,-0.04073 0.28515,-0.07859 0.42633,-0.113688 0.14118,-0.0351 0.28131,-0.06724 0.42064,-0.09664 0.13934,-0.02939 0.27755,-0.05596 0.41496,-0.07958 0.13742,-0.02363 0.27388,-0.04422 0.40928,-0.06201 0.1354,-0.01779 0.26977,-0.03255 0.40308,-0.04444 0.13331,-0.01189 0.26574,-0.02094 0.39687,-0.02687 0.13113,-0.0059 0.26129,-0.0089 0.39016,-0.0088 0.12887,1.01e-4 0.2564,0.0031 0.38292,0.0093 0.12653,0.0062 0.25211,0.01555 0.37621,0.02791 0.1241,0.01235 0.24686,0.02793 0.36845,0.04651 0.12159,0.01858 0.24171,0.04024 0.3607,0.06511 0.11899,0.02487 0.23664,0.053 0.35295,0.08423 0.11632,0.03123 0.23113,0.0657 0.34468,0.103353 0.11355,0.03765 0.22571,0.07834 0.33642,0.122473 0.1107,0.04414 0.22037,0.09142 0.32814,0.14211 0.10778,0.05069 0.21408,0.104957 0.31885,0.162264 0.10476,0.05731 0.20787,0.117911 0.30954,0.181901 0.10166,0.06399 0.20175,0.131317 0.30024,0.202055 0.0985,0.07074 0.1952,0.144657 0.29042,0.222209 0.0952,0.07755 0.18873,0.158448 0.2806,0.242879 0.0919,0.08443 0.18234,0.172691 0.27079,0.264067 0.0884,0.09138 0.175,0.185835 0.25993,0.28422 0.0849,0.09839 0.16827,0.200464 0.2496,0.305925 0.0813,0.10546 0.16058,0.21451 0.23822,0.327111 0.0777,0.112602 0.1535,0.229009 0.22738,0.348816 0.0739,0.119807 0.14598,0.242925 0.21601,0.370004 0.0487,0.08842 0.0953,0.180887 0.14211,0.272851 0.58118,-1.192457 2.5899,-5.674714 1.22111,-8.138521 -1.58735,-2.857214 -10.20971,-1.438672 -10.20971,-1.438672 0,0 1.6027,-2.791902 -1.85363,-5.069458 -3.53006,-1.502089 -6.91254,-2.171284 -10.11722,-2.158008 z m 3.2489,10.24537 c -5.47435,-0.668248 -3.23202,-1.213488 -8.82831,1.340497 0,0 3.9607,-4.07498 6.26387,-4.44646 2.77759,0.176148 4.81025,1.677274 2.56444,3.105963 z"
         sodipodi:nodetypes="cccsccsccssssssssssssssssssssssssssssssssssssssssssssssssssssssssssssssssssssscsccsccccc" />
      <path
         style="font-weight:bold;font-size:16.6752px;font-family:'Zapf Dingbats';-inkscape-font-specification:'Zapf Dingbats Bold';text-align:justify;fill:url(#linearGradient2);stroke-width:0.685391;fill-opacity:1"
         d="m 274.38686,119.50578 h -8.76914 v -12.12371 h 8.76914 v 2.34495 h -5.65882 v 2.09254 h 5.25171 v 2.34495 h -5.25171 v 2.99632 h 5.65882 z m 13.82543,0 h -3.23244 l -0.83865,-2.4508 h -4.49449 l -0.83864,2.4508 h -3.15103 l 4.4782,-12.12371 h 3.59885 z m -4.82831,-4.67361 -1.49002,-4.34793 -1.49002,4.34793 z m 17.294,3.98153 q -0.81422,0.31754 -2.15768,0.63509 -1.34346,0.3094 -2.67878,0.3094 -3.09403,0 -4.8446,-1.67729 -1.75057,-1.68543 -1.75057,-4.64919 0,-2.82534 1.76686,-4.55148 1.76685,-1.73429 4.92602,-1.73429 1.1969,0 2.27981,0.21984 1.08291,0.2117 2.41009,0.85493 v 2.84162 h -0.35011 q -0.22799,-0.17098 -0.66766,-0.48038 -0.43968,-0.31755 -0.84679,-0.53739 -0.47225,-0.26055 -1.10734,-0.44782 -0.62695,-0.18727 -1.33532,-0.18727 -0.8305,0 -1.5063,0.24427 -0.6758,0.24426 -1.21319,0.74908 -0.51296,0.48853 -0.81422,1.24575 -0.29311,0.74908 -0.29311,1.73429 0,2.01112 1.06662,3.07775 1.06663,1.06662 3.15103,1.06662 0.17913,0 0.39082,-0.008 0.21984,-0.008 0.39897,-0.0244 v -2.37752 h -2.41823 v -2.28795 h 5.59368 z m 11.54562,0.69208 h -8.74471 v -12.12371 h 3.1266 v 9.77876 h 5.61811 z m 10.64999,0 h -8.76914 v -12.12371 h 8.76914 v 2.34495 h -5.65882 v 2.09254 h 5.25171 v 2.34495 h -5.25171 v 2.99632 h 5.65882 z m 8.18289,-4.21765 h -6.21249 v -2.34495 h 6.21249 z m 9.24139,-4.19323 q 0,-0.45596 -0.18727,-0.78165 -0.18727,-0.32568 -0.64324,-0.51295 -0.31754,-0.13028 -0.74093,-0.15471 -0.4234,-0.0326 -0.98521,-0.0326 h -1.13176 v 3.26501 h 0.96077 q 0.74909,0 1.2539,-0.0733 0.50482,-0.0733 0.84679,-0.33383 0.32569,-0.2524 0.47225,-0.55367 0.1547,-0.3094 0.1547,-0.82236 z m 4.87717,8.41088 h -3.81869 l -3.30573,-4.44563 h -1.44116 v 4.44563 h -3.11032 v -12.12371 h 5.24357 q 1.07477,0 1.84828,0.12213 0.7735,0.12213 1.44931,0.52924 0.68394,0.40711 1.08291,1.05849 0.40711,0.64323 0.40711,1.62029 0,1.34346 -0.62695,2.19025 -0.61881,0.84679 -1.775,1.4086 z m 11.37463,-8.29689 q 0,0.81422 -0.28497,1.59587 -0.28498,0.77351 -0.81422,1.30275 -0.72466,0.71652 -1.6203,1.08291 -0.88749,0.3664 -2.21467,0.3664 h -1.94598 v 3.94896 h -3.1266 v -12.12371 h 5.14586 q 1.15619,0 1.94598,0.20355 0.79794,0.19541 1.4086,0.59438 0.7328,0.48039 1.11548,1.22947 0.39082,0.74908 0.39082,1.79942 z m -3.23244,0.0733 q 0,-0.51295 -0.27684,-0.87935 -0.27683,-0.37454 -0.64323,-0.5211 -0.48853,-0.19541 -0.95264,-0.2117 -0.4641,-0.0244 -1.23761,-0.0244 h -0.53738 v 3.63142 h 0.89564 q 0.79793,0 1.31089,-0.0977 0.5211,-0.0977 0.87121,-0.39082 0.30126,-0.26055 0.43154,-0.61881 0.13842,-0.3664 0.13842,-0.8875 z"
         id="text14857"
         aria-label="EAGLE-RP" />
      <circle
         style="opacity:0.54;fill:none;stroke:#000000;stroke-width:0.661458;stroke-dasharray:none"
         id="path2001"
         cx="127.30076"
         cy="71.691406"
         r="75.831322" />
      <ellipse
         style="opacity:0.54;fill:none;stroke:#000000;stroke-width:0.661458;stroke-dasharray:none"
         id="path2003"
         cx="127.30076"
         cy="71.691406"
         rx="19.159485"
         ry="18.955601" />
      <ellipse
         style="opacity:0.54;fill:none;stroke:#000000;stroke-width:0.661458;stroke-dasharray:none"
         id="path2005"
         cx="127.30076"
         cy="71.691406"
         rx="28.514381"
         ry="28.514372" />
      <ellipse
         style="opacity:0.54;fill:none;stroke:#000000;stroke-width:0.661458;stroke-dasharray:none"
         id="path2009"
         cx="127.30076"
         cy="71.691406"
         rx="9.4323273"
         ry="9.4179153" />
      <ellipse
         style="opacity:0.54;fill:none;stroke:#000000;stroke-width:0.661458;stroke-dasharray:none"
         id="path2011"
         cx="127.30076"
         cy="71.691406"
         rx="47.52668"
         ry="47.526669" />
      <circle
         style="opacity:0.54;fill:none;fill-opacity:1;stroke:#000000;stroke-width:0.390124;stroke-dasharray:none"
         id="path2001-8-1"
         cx="85.705284"
         cy="225.87534"
         r="44.724953" />
      <ellipse
         style="opacity:0.54;fill:none;fill-opacity:1;stroke:#000000;stroke-width:0.390124;stroke-dasharray:none"
         id="path2003-3-7"
         cx="85.705284"
         cy="225.87534"
         rx="11.300173"
         ry="11.179924" />
      <ellipse
         style="opacity:0.54;fill:none;fill-opacity:1;stroke:#000000;stroke-width:0.390124;stroke-dasharray:none"
         id="path2005-8-5"
         cx="85.705284"
         cy="225.87534"
         rx="16.817648"
         ry="16.81764" />
      <ellipse
         style="opacity:0.54;fill:none;fill-opacity:1;stroke:#000000;stroke-width:0.390124;stroke-dasharray:none"
         id="path2009-1-5"
         cx="85.705284"
         cy="225.87534"
         rx="5.5631413"
         ry="5.5546417" />
      <ellipse
         style="opacity:0.54;fill:none;fill-opacity:1;stroke:#000000;stroke-width:0.390124;stroke-dasharray:none"
         id="path2011-5-4"
         cx="85.705284"
         cy="225.87534"
         rx="28.031012"
         ry="28.031" />
      <g
         inkscape:groupmode="layer"
         id="layer2"
         inkscape:label="ref"
         transform="translate(243.38994,-4.2356125)"
         style="display:inline" />
      <g
         id="g14466"
         transform="translate(401.82831,-114.10614)">
        <path
           id="rect3377"
           style="opacity:1;fill:#ff0000;stroke:none;stroke-width:0.264583;stroke-dasharray:none"
           d="m -72.08331,162.52113 a 11.300173,11.179924 0 0 1 1.785937,0.47336 11.300173,11.179924 0 0 1 1.056266,0.48679 5.5631413,5.5546417 0 0 0 -0.09612,-0.0682 5.5631413,5.5546417 0 0 0 -0.394808,-0.23461 5.5631413,5.5546417 0 0 0 -0.412894,-0.20206 5.5631413,5.5546417 0 0 0 -0.428398,-0.16691 5.5631413,5.5546417 0 0 0 -0.4408,-0.13074 5.5631413,5.5546417 0 0 0 -0.450102,-0.0941 5.5631413,5.5546417 0 0 0 -0.456303,-0.0568 5.5631413,5.5546417 0 0 0 -0.16278,-0.007 z" />
        <path
           id="path6894"
           style="opacity:1;fill:url(#linearGradient14879);fill-opacity:1;stroke:none;stroke-width:0.264583;stroke-dasharray:none"
           d="m -74.892441,168.47426 a 5.5631413,5.5546417 0 0 0 -0.660942,0.0475 44.724953,44.724953 0 0 0 -1.328601,0.42375 44.724953,44.724953 0 0 0 -0.913122,0.37827 44.724953,44.724953 0 0 0 -0.127641,0.0496 44.724953,44.724953 0 0 0 -2.563668,1.06505 44.724953,44.724953 0 0 0 -3.461287,1.80196 44.724953,44.724953 0 0 0 -1.487248,0.94723 44.724953,44.724953 0 0 0 -1.802991,1.14876 44.724953,44.724953 0 0 0 -3.095935,2.37557 44.724953,44.724953 0 0 0 -2.87631,2.63601 44.724953,44.724953 0 0 0 -2.636015,2.87631 44.724953,44.724953 0 0 0 -2.375566,3.09542 44.724953,44.724953 0 0 0 -0.476456,0.74776 44.724953,44.724953 0 0 0 -1.619537,2.543 44.724953,44.724953 0 0 0 -1.80196,3.46128 44.724953,44.724953 0 0 0 -1.49293,3.60444 44.724953,44.724953 0 0 0 -1.17357,3.72122 44.724953,44.724953 0 0 0 -0.8444,3.80907 44.724953,44.724953 0 0 0 -0.26303,2.00091 44.724953,44.724953 0 0 0 -0.24598,1.86758 44.724953,44.724953 0 0 0 -0.17053,3.89796 44.724953,44.724953 0 0 0 0.11214,2.56418 44.724953,44.724953 0 0 0 0.0723,0.03 44.724953,44.724953 0 0 0 3.72122,1.17306 44.724953,44.724953 0 0 0 3.80959,0.84439 44.724953,44.724953 0 0 0 3.867981,0.50953 44.724953,44.724953 0 0 0 3.89847,0.17002 44.724953,44.724953 0 0 0 3.897953,-0.17002 44.724953,44.724953 0 0 0 3.867981,-0.50953 44.724953,44.724953 0 0 0 3.809586,-0.84439 44.724953,44.724953 0 0 0 3.72122,-1.17306 44.724953,44.724953 0 0 0 3.604432,-1.49345 44.724953,44.724953 0 0 0 2.061889,-1.07331 28.031012,28.031 0 0 1 -2.266011,-1.60766 28.031012,28.031 0 0 1 -1.885673,-1.68517 28.031012,28.031 0 0 1 -0.45837,-0.40927 28.031012,28.031 0 0 1 -2.094446,-2.34405 28.031012,28.031 0 0 1 -1.819011,-2.56367 28.031012,28.031 0 0 1 -1.520837,-2.75125 28.031012,28.031 0 0 1 -1.203027,-2.9037 28.031012,28.031 0 0 1 -0.870231,-3.021 28.031012,28.031 0 0 1 -0.526067,-3.09852 28.031012,28.031 0 0 1 -0.176733,-3.13883 28.031012,28.031 0 0 1 0.176733,-3.13831 28.031012,28.031 0 0 1 0.486276,-2.86494 28.031012,28.031 0 0 1 0.03979,-0.23409 28.031012,28.031 0 0 1 0.204121,-0.709 11.300173,11.179924 0 0 1 0.05271,-0.5948 11.300173,11.179924 0 0 1 0.510047,-1.88205 11.300173,11.179924 0 0 1 0.832507,-1.7663 11.300173,11.179924 0 0 1 0.171049,-0.24185 28.031012,28.031 0 0 1 0.07958,-0.19172 28.031012,28.031 0 0 1 0.03669,-0.0879 5.5631413,5.5546417 0 0 0 0.01085,0.0997 11.300173,11.179924 0 0 1 0.831474,-1.17461 11.300173,11.179924 0 0 1 1.393197,-1.37821 11.300173,11.179924 0 0 1 1.613338,-1.11776 11.300173,11.179924 0 0 1 0.128157,-0.0594 11.300173,11.179924 0 0 1 1.656747,-0.76429 11.300173,11.179924 0 0 1 1.83658,-0.4868 11.300173,11.179924 0 0 1 0.06615,-0.0176 11.300173,11.179924 0 0 1 1.397331,-0.12092 5.5631413,5.5546417 0 0 1 0.02325,0.015 5.5631413,5.5546417 0 0 1 0.880566,0.87953 5.5631413,5.5546417 0 0 1 0.663009,1.05317 5.5631413,5.5546417 0 0 1 0.04082,0.11575 5.5631413,5.5546417 0 0 0 0.07751,-0.045 5.5631413,5.5546417 0 0 0 -0.02945,-0.12815 5.5631413,5.5546417 0 0 0 -0.07752,-0.27079 5.5631413,5.5546417 0 0 0 -0.09095,-0.26613 5.5631413,5.5546417 0 0 0 -0.104903,-0.26149 5.5631413,5.5546417 0 0 0 -0.117305,-0.25528 5.5631413,5.5546417 0 0 0 -0.130742,-0.24959 5.5631413,5.5546417 0 0 0 -0.143143,-0.24288 5.5631413,5.5546417 0 0 0 -0.15503,-0.23461 5.5631413,5.5546417 0 0 0 -0.166915,-0.22686 5.5631413,5.5546417 0 0 0 -0.177766,-0.21808 5.5631413,5.5546417 0 0 0 -0.189136,-0.20877 5.5631413,5.5546417 0 0 0 -0.199471,-0.19896 5.5631413,5.5546417 0 0 0 -0.208773,-0.18913 5.5631413,5.5546417 0 0 0 -0.218591,-0.17777 5.5631413,5.5546417 0 0 0 -0.227377,-0.1664 5.5631413,5.5546417 0 0 0 -0.235127,-0.15503 5.5631413,5.5546417 0 0 0 -0.24288,-0.14262 5.5631413,5.5546417 0 0 0 -0.250114,-0.13023 5.5631413,5.5546417 0 0 0 -0.255798,-0.11782 5.5631413,5.5546417 0 0 0 -0.261999,-0.10439 5.5631413,5.5546417 0 0 0 -0.266651,-0.0909 5.5631413,5.5546417 0 0 0 -0.270784,-0.077 5.5631413,5.5546417 0 0 0 -0.274919,-0.0641 5.5631413,5.5546417 0 0 0 -0.276986,-0.0496 5.5631413,5.5546417 0 0 0 -0.280086,-0.0351 5.5631413,5.5546417 0 0 0 -0.280603,-0.0217 5.5631413,5.5546417 0 0 0 -0.282153,-0.007 z" />
        <path
           id="path10155"
           style="opacity:1;fill:url(#linearGradient15811);fill-opacity:1;stroke:none;stroke-width:0.264583;stroke-dasharray:none"
           d="m -88.142278,155.50657 c -1.048749,0 -2.096668,0.0588 -3.138827,0.17622 -1.042049,0.11742 -2.076697,0.29322 -3.099036,0.52658 -0.683906,0.16941 -1.361177,0.36454 -2.030367,0.58498 -0.331759,0.089 -0.66186,0.18411 -0.99012,0.28526 -0.989819,0.34637 -1.959409,0.748 -2.904212,1.20302 -0.0789,0.043 -0.15765,0.0864 -0.23616,0.13023 -0.93197,0.54728 -1.8438,1.12815 -2.73369,1.74149 -1.06587,0.74645 -2.09866,1.53906 -3.09542,2.37557 -0.99683,0.8364 -1.95668,1.71591 -2.87682,2.63601 -0.15388,0.16524 -0.3065,0.33165 -0.45786,0.4992 -0.75439,0.76593 -1.48091,1.55882 -2.17816,2.37711 -0.83633,0.99677 -1.62877,2.02956 -2.37505,3.09542 -0.74637,1.0659 -1.44588,2.16386 -2.09651,3.29076 -0.65055,1.127 -1.2516,2.28188 -1.80144,3.46128 -0.55001,1.17918 -1.0483,2.38181 -1.49345,3.60444 -0.44496,1.22273 -0.83635,2.46434 -1.17305,3.72122 -0.33674,1.25678 -0.61847,2.5277 -0.8444,3.80907 -0.22604,1.28145 -0.39604,2.5722 -0.50953,3.86849 -0.11334,1.29623 -0.17007,2.59679 -0.17001,3.89796 -7e-5,1.30134 0.0567,2.60207 0.17001,3.89847 0.0977,0.99994 0.229,1.99631 0.39378,2.98741 0.0506,0.0665 0.10144,0.13278 0.15244,0.19896 0.083,0.0913 0.16637,0.18225 0.25012,0.27285 0.58583,0.56703 1.18705,1.11793 1.80299,1.65209 0.99677,0.83633 2.02956,1.62877 3.09542,2.37505 1.0659,0.74637 2.16386,1.4459 3.29075,2.09651 1.12684,0.65053 2.28153,1.25161 3.46077,1.80144 1.15596,0.53795 2.3344,1.02622 3.53209,1.46348 -0.0619,-0.85348 -0.0993,-1.70856 -0.11214,-2.56418 1.1e-4,-1.30118 0.057,-2.60174 0.17053,-3.89796 0.0689,-0.62418 0.15088,-1.24685 0.24598,-1.86758 0.0726,-0.66886 0.16031,-1.336 0.26303,-2.00091 0.22593,-1.28137 0.50766,-2.55229 0.8444,-3.80907 0.33687,-1.25689 0.72843,-2.4985 1.17357,-3.72122 0.44498,-1.22262 0.9431,-2.42525 1.49293,-3.60444 0.55001,-1.17941 1.15124,-2.33429 1.80196,-3.46128 0.511104,-0.86563 1.051267,-1.71377 1.619537,-2.543 0.15634,-0.25082 0.315167,-0.50009 0.476456,-0.74776 0.74644,-1.06587 1.539067,-2.09866 2.375566,-3.09542 0.836419,-0.99664 1.715926,-1.95634 2.636015,-2.87631 0.919969,-0.92009 1.879661,-1.7996 2.87631,-2.63601 0.996926,-0.83652 2.029886,-1.62913 3.095935,-2.37557 0.59176,-0.39723 1.192931,-0.78026 1.802991,-1.14876 0.489469,-0.32549 0.985321,-0.64129 1.487248,-0.94723 1.126993,-0.65072 2.28186,-1.25195 3.461287,-1.80196 0.88476,-0.40068 1.782343,-0.77243 2.691309,-1.11466 0.302969,-0.12945 0.607364,-0.25555 0.913122,-0.37827 0.440538,-0.14893 0.884167,-0.28864 1.329118,-0.42375 a 5.5631413,5.5546417 0 0 1 0.660425,-0.0475 5.5631413,5.5546417 0 0 1 0.282153,0.007 5.5631413,5.5546417 0 0 1 0.280603,0.0217 5.5631413,5.5546417 0 0 1 0.280086,0.0351 5.5631413,5.5546417 0 0 1 0.276986,0.0496 5.5631413,5.5546417 0 0 1 0.274919,0.0641 5.5631413,5.5546417 0 0 1 0.270784,0.077 5.5631413,5.5546417 0 0 1 0.266651,0.091 5.5631413,5.5546417 0 0 1 0.261999,0.10439 5.5631413,5.5546417 0 0 1 0.255798,0.11782 5.5631413,5.5546417 0 0 1 0.250114,0.13023 5.5631413,5.5546417 0 0 1 0.24288,0.14262 5.5631413,5.5546417 0 0 1 0.235127,0.15503 5.5631413,5.5546417 0 0 1 0.227377,0.1664 5.5631413,5.5546417 0 0 1 0.218591,0.17777 5.5631413,5.5546417 0 0 1 0.208773,0.18913 5.5631413,5.5546417 0 0 1 0.199471,0.19896 5.5631413,5.5546417 0 0 1 0.189136,0.20877 5.5631413,5.5546417 0 0 1 0.177766,0.21808 5.5631413,5.5546417 0 0 1 0.166915,0.22686 5.5631413,5.5546417 0 0 1 0.15503,0.23461 5.5631413,5.5546417 0 0 1 0.143143,0.24288 5.5631413,5.5546417 0 0 1 0.130742,0.24959 5.5631413,5.5546417 0 0 1 0.117305,0.25528 5.5631413,5.5546417 0 0 1 0.104903,0.26149 5.5631413,5.5546417 0 0 1 0.09095,0.26613 5.5631413,5.5546417 0 0 1 0.07752,0.27079 5.5631413,5.5546417 0 0 1 0.02945,0.12815 5.5631413,5.5546417 0 0 0 0.565857,-0.35863 5.5631413,5.5546417 0 0 0 0.881083,-0.87953 5.5631413,5.5546417 0 0 0 0.290422,-0.46199 5.5631413,5.5546417 0 0 0 0.37207,-0.59118 5.5631413,5.5546417 0 0 0 0.411861,-1.17409 5.5631413,5.5546417 0 0 0 0.13901,-1.2361 5.5631413,5.5546417 0 0 0 -0.0186,-0.45889 5.5631413,5.5546417 0 0 0 -0.05684,-0.45526 5.5631413,5.5546417 0 0 0 -0.09457,-0.44959 5.5631413,5.5546417 0 0 0 -0.02377,-0.0801 5.5631413,5.5546417 0 0 0 -0.107487,-0.35967 5.5631413,5.5546417 0 0 0 -0.166915,-0.42788 5.5631413,5.5546417 0 0 0 -0.202054,-0.41237 5.5631413,5.5546417 0 0 0 -0.235645,-0.3943 5.5631413,5.5546417 0 0 0 -0.267167,-0.37362 5.5631413,5.5546417 0 0 0 -0.29714,-0.35036 5.5631413,5.5546417 0 0 0 -0.325044,-0.32453 5.5631413,5.5546417 0 0 0 -0.350883,-0.29662 5.5631413,5.5546417 0 0 0 -0.214458,-0.15297 c -0.02108,-0.0155 -0.04227,-0.0308 -0.06356,-0.046 -0.343391,-0.18013 -0.69595,-0.34261 -1.056266,-0.48679 -3.006754,-0.54424 -1.562213,-0.39896 -3.86488,-0.67438 -0.486447,0.011 -0.971666,0.0532 -1.452625,0.12609 -0.170156,0.0108 -0.340045,0.0255 -0.509529,0.0439 -1.632161,0.51588 -1.713517,0.50205 -1.837614,-0.81701 -1e-5,-0.41595 -0.04681,-0.83058 -0.139527,-1.2361 -0.09266,-0.40551 -0.230637,-0.79934 -0.411344,-1.17409 l -0.0026,-0.004 c -0.06995,-0.0614 -0.140402,-0.1222 -0.211356,-0.18242 -0.212851,-0.17463 -0.429957,-0.34401 -0.651124,-0.50798 -0.221039,-0.16397 -0.446073,-0.32249 -0.674894,-0.47542 -0.228726,-0.15279 -0.461169,-0.29994 -0.697115,-0.44132 -0.236065,-0.14159 -0.475571,-0.27737 -0.718302,-0.40721 -0.242735,-0.12969 -0.488617,-0.25341 -0.737423,-0.37103 -0.248719,-0.1176 -0.500287,-0.22909 -0.754476,-0.33435 -0.25419,-0.10533 -0.510927,-0.20441 -0.769979,-0.29714 -0.07544,-0.0255 -0.151063,-0.0505 -0.226859,-0.0749 -0.184611,-0.0646 -0.370322,-0.12589 -0.557072,-0.18397 -0.26343,-0.0799 -0.528777,-0.15328 -0.795817,-0.22014 -0.26685,-0.0669 -0.535299,-0.12717 -0.805119,-0.18087 h -5.17e-4 c -0.317479,-0.0237 -0.63534,-0.0419 -0.95343,-0.0548 -0.35761,-0.0137 -0.71545,-0.0206 -1.073319,-0.0207 z m 15.41973,10.5668 a 28.031012,28.031 0 0 0 -0.155029,0.13798 c 0.05143,-0.0463 0.103258,-0.0921 0.155029,-0.13798 z m -0.421163,1.69499 a 44.724953,44.724953 0 0 0 -0.01705,0.004 44.724953,44.724953 0 0 0 -0.654224,0.19534 44.724953,44.724953 0 0 1 0.654224,-0.19585 44.724953,44.724953 0 0 1 0.01705,-0.004 z m -1.336869,0.40928 a 44.724953,44.724953 0 0 0 -0.65474,0.21755 28.031012,28.031 0 0 1 0,-5.1e-4 44.724953,44.724953 0 0 1 0.65474,-0.21704 z" />
        <path
           id="path6878"
           style="opacity:1;fill:#00acc1;fill-opacity:1;stroke:none;stroke-width:0.264583;stroke-dasharray:none"
           d="m -131.86312,179.48341 a 44.724953,44.724953 0 0 1 0.091,-2.08256 44.724953,44.724953 0 0 1 0.50901,-3.8685 44.724953,44.724953 0 0 1 0.84439,-3.80907 44.724953,44.724953 0 0 1 1.17357,-3.72122 44.724953,44.724953 0 0 1 1.49294,-3.60495 44.724953,44.724953 0 0 1 1.80195,-3.46077 44.724953,44.724953 0 0 1 2.096,-3.29076 44.724953,44.724953 0 0 1 2.37557,-3.09541 44.724953,44.724953 0 0 1 2.63601,-2.87683 44.724953,44.724953 0 0 1 2.87631,-2.6355 44.724953,44.724953 0 0 1 3.09542,-2.37556 44.724953,44.724953 0 0 1 3.29075,-2.09652 44.724953,44.724953 0 0 1 3.46129,-1.80144 44.724953,44.724953 0 0 1 3.60443,-1.49293 44.724953,44.724953 0 0 1 2.586408,-0.81597 44.724953,44.724953 0 0 0 -3.786848,0.83974 44.724953,44.724953 0 0 0 -3.72122,1.17306 44.724953,44.724953 0 0 0 -3.60443,1.49345 44.724953,44.724953 0 0 0 -3.46129,1.80144 44.724953,44.724953 0 0 0 -3.29075,2.09651 44.724953,44.724953 0 0 0 -3.09542,2.37505 44.724953,44.724953 0 0 0 -2.87631,2.63601 44.724953,44.724953 0 0 0 -2.63602,2.87683 44.724953,44.724953 0 0 0 -0.66352,0.86455 44.724953,44.724953 0 0 0 -0.83975,1.61333 44.724953,44.724953 0 0 0 -1.49293,3.60495 44.724953,44.724953 0 0 0 -1.17357,3.72071 44.724953,44.724953 0 0 0 -0.84439,3.80958 44.724953,44.724953 0 0 0 -0.50902,3.8685 44.724953,44.724953 0 0 0 -0.17053,3.89795 44.724953,44.724953 0 0 0 0.17053,3.89796 44.724953,44.724953 0 0 0 0.0605,0.45837 z" />
        <path
           id="path6826"
           style="opacity:1;fill:#ff0000;stroke:none;stroke-width:0.264583;stroke-dasharray:none"
           d="m -80.096258,175.76632 a 28.031012,28.031 0 0 0 -0.116272,0.27957 11.300173,11.179924 0 0 1 0.127124,-0.17983 5.5631413,5.5546417 0 0 1 -0.01085,-0.0997 z" />
        <path
           id="path6804"
           style="opacity:1;fill:#ff0000;stroke:none;stroke-width:0.264583;stroke-dasharray:none"
           d="m -69.161525,163.51849 a 11.300173,11.179924 0 0 0 -0.07958,-0.0372 5.5631413,5.5546417 0 0 1 0.06356,0.046 28.031012,28.031 0 0 1 0.01602,-0.009 z" />
        <path
           id="path6790"
           style="opacity:1;fill:#008fa0;fill-opacity:1;stroke:none;stroke-width:0.264583;stroke-dasharray:none"
           d="m -87.217787,136.57388 c -1.301172,-5e-5 -2.601727,0.0567 -3.897953,0.17002 -1.296298,0.11349 -2.587025,0.28349 -3.868493,0.50953 -1.28137,0.22592 -2.55227,0.50765 -3.80907,0.84439 -0.37984,0.11416 -0.75815,0.23337 -1.13482,0.3576 l 0.0222,-0.005 c 1.28147,-0.22604 2.5722,-0.39604 3.8685,-0.50953 1.29622,-0.11335 2.596779,-0.17007 3.897952,-0.17002 1.301172,-5e-5 2.601727,0.0567 3.897953,0.17002 1.296298,0.11349 2.587025,0.28349 3.868498,0.50953 1.281541,0.22591 2.552613,0.50764 3.809586,0.84439 1.25688,0.3367 2.498468,0.72809 3.72122,1.17306 1.222629,0.44515 2.42525,0.94344 3.604431,1.49345 1.179245,0.54985 2.333934,1.15091 3.460771,1.80144 1.126894,0.65063 2.224857,1.35014 3.290755,2.09651 1.065863,0.74628 2.098651,1.53872 3.095418,2.37505 0.996832,0.8364 1.956688,1.71591 2.876827,2.63601 0.920103,0.92014 1.799612,1.88 2.636015,2.87683 0.836333,0.99677 1.628769,2.02956 2.375049,3.09542 0.378751,0.56553 0.744544,1.13963 1.097091,1.72186 0.237059,0.32459 0.352056,0.53946 0.571541,0.89727 0.144615,0.22248 0.287248,0.44625 0.427881,0.67127 0.65071,1.12683 1.251934,2.28152 1.801957,3.46077 0.549849,1.17936 1.047967,2.38215 1.492932,3.60495 0.06445,0.19954 0.127498,0.39953 0.189136,0.59996 0.365941,1.02807 0.694134,2.06918 0.983919,3.12126 0.336911,1.2568 0.618815,2.52769 0.84491,3.80907 0.225866,1.28148 0.395698,2.57221 0.509013,3.8685 0.101205,1.20144 0.153786,2.40649 0.157613,3.61218 0.246784,-0.96083 0.461532,-1.92961 0.643888,-2.90473 0.225866,-1.28148 0.395698,-2.57221 0.509013,-3.8685 0.113518,-1.29622 0.170416,-2.59677 0.170532,-3.89795 -8.9e-5,-0.45035 -0.007,-0.90068 -0.02067,-1.35082 -0.01274,-0.39934 -0.03083,-0.79849 -0.05426,-1.19735 -0.0022,-0.0508 -0.0044,-0.10163 -0.0067,-0.15244 -0.02715,-0.44938 -0.06109,-0.89833 -0.101802,-1.34669 -0.04077,-0.44856 -0.08832,-0.89647 -0.142627,-1.34359 -0.05441,-0.44704 -0.115566,-0.89323 -0.183451,-1.33842 -0.01588,-0.0965 -0.03207,-0.19297 -0.04858,-0.28938 -0.05411,-0.34846 -0.112334,-0.69627 -0.174667,-1.04335 -0.08117,-0.44296 -0.169034,-0.88468 -0.263549,-1.32499 -0.07285,-0.33332 -0.149505,-0.66579 -0.22996,-0.99735 -0.143417,-0.28301 -0.289842,-0.56449 -0.43925,-0.84439 -0.230621,-0.46212 -0.46923,-0.92022 -0.715719,-1.37408 -0.650634,-1.1269 -1.350137,-2.22486 -2.096513,-3.29076 -0.74628,-1.06586 -1.538716,-2.09865 -2.375048,-3.09541 -0.836403,-0.99683 -1.715912,-1.95669 -2.636015,-2.87683 -0.92015,-0.91993 -1.880005,-1.79926 -2.876827,-2.6355 -0.996757,-0.83651 -2.029546,-1.62911 -3.095419,-2.37556 -1.065898,-0.74638 -2.163861,-1.44588 -3.290755,-2.09652 -1.126837,-0.65053 -2.281525,-1.25159 -3.46077,-1.80144 -1.17919,-0.54983 -2.381811,-1.04795 -3.604432,-1.49293 -1.222744,-0.44514 -2.464331,-0.8367 -3.721219,-1.17357 -1.256974,-0.33675 -2.528045,-0.61848 -3.809587,-0.84439 -1.281302,-0.22602 -2.571856,-0.39603 -3.867981,-0.50953 -1.296398,-0.11336 -2.597125,-0.17009 -3.89847,-0.17002 z"
           sodipodi:nodetypes="ccccccccccsccssssscccccccccccccccccsccccccccsscccsscccccc" />
        <path
           id="path6750"
           style="opacity:1;fill:#00acc1;fill-opacity:1;stroke:none;stroke-width:0.264583;stroke-dasharray:none"
           d="m -47.524603,160.37243 a 44.724953,44.724953 0 0 0 -0.221692,-0.84336 44.724953,44.724953 0 0 0 -0.382405,-1.29553 44.724953,44.724953 0 0 0 -0.42168,-1.28364 44.724953,44.724953 0 0 0 -0.45992,-1.27021 44.724953,44.724953 0 0 0 -0.497644,-1.25574 44.724953,44.724953 0 0 0 -0.535885,-1.24023 44.724953,44.724953 0 0 0 -0.573091,-1.2237 44.724953,44.724953 0 0 0 -0.609782,-1.20561 44.724953,44.724953 0 0 0 -0.645956,-1.18649 44.724953,44.724953 0 0 0 -0.681095,-1.16634 44.724953,44.724953 0 0 0 -0.716235,-1.14566 44.724953,44.724953 0 0 0 -0.750859,-1.12345 44.724953,44.724953 0 0 0 -0.783931,-1.10019 44.724953,44.724953 0 0 0 -0.817005,-1.0759 44.724953,44.724953 0 0 0 -0.849044,-1.05059 44.724953,44.724953 0 0 0 -0.284737,-0.33124 44.724953,44.724953 0 0 0 -1.865002,-1.70894 44.724953,44.724953 0 0 0 -3.095418,-2.37505 44.724953,44.724953 0 0 0 -3.290756,-2.09651 44.724953,44.724953 0 0 0 -3.46077,-1.80144 44.724953,44.724953 0 0 0 -3.604948,-1.49345 44.724953,44.724953 0 0 0 -3.720703,-1.17306 44.724953,44.724953 0 0 0 -3.809587,-0.84439 44.724953,44.724953 0 0 0 -3.868498,-0.50953 44.724953,44.724953 0 0 0 -3.897953,-0.17002 44.724953,44.724953 0 0 0 -3.897953,0.17002 44.724953,44.724953 0 0 0 -3.868498,0.50953 44.724953,44.724953 0 0 0 -3.80907,0.84439 44.724953,44.724953 0 0 0 -3.72122,1.17306 44.724953,44.724953 0 0 0 -3.60495,1.49345 44.724953,44.724953 0 0 0 -3.46077,1.80144 44.724953,44.724953 0 0 0 -3.29075,2.09651 44.724953,44.724953 0 0 0 -3.09542,2.37505 44.724953,44.724953 0 0 0 -2.87631,2.63601 44.724953,44.724953 0 0 0 -2.63602,2.87683 44.724953,44.724953 0 0 0 -2.37556,3.09542 44.724953,44.724953 0 0 0 -2.09652,3.29075 44.724953,44.724953 0 0 0 -0.96169,1.84744 44.724953,44.724953 0 0 1 0.66352,-0.86455 44.724953,44.724953 0 0 1 2.63602,-2.87683 44.724953,44.724953 0 0 1 2.87631,-2.63601 44.724953,44.724953 0 0 1 3.09542,-2.37505 44.724953,44.724953 0 0 1 3.29075,-2.09651 44.724953,44.724953 0 0 1 3.46129,-1.80144 44.724953,44.724953 0 0 1 3.60443,-1.49345 44.724953,44.724953 0 0 1 3.72122,-1.17306 44.724953,44.724953 0 0 1 3.786848,-0.83974 44.724953,44.724953 0 0 1 1.134814,-0.3576 44.724953,44.724953 0 0 1 3.80907,-0.84439 44.724953,44.724953 0 0 1 3.868498,-0.50953 44.724953,44.724953 0 0 1 3.897953,-0.17002 44.724953,44.724953 0 0 1 3.89847,0.17002 44.724953,44.724953 0 0 1 3.867981,0.50953 44.724953,44.724953 0 0 1 3.809587,0.84439 44.724953,44.724953 0 0 1 3.721219,1.17357 44.724953,44.724953 0 0 1 3.604432,1.49293 44.724953,44.724953 0 0 1 3.46077,1.80144 44.724953,44.724953 0 0 1 3.290755,2.09652 44.724953,44.724953 0 0 1 3.095419,2.37556 44.724953,44.724953 0 0 1 2.876827,2.6355 44.724953,44.724953 0 0 1 2.636015,2.87683 44.724953,44.724953 0 0 1 2.375048,3.09541 44.724953,44.724953 0 0 1 2.096513,3.29076 44.724953,44.724953 0 0 1 0.715719,1.37408 28.031012,28.031 0 0 1 0.244429,0.062 z" />
        <path
           id="path6718"
           style="opacity:1;fill:#ff0000;stroke:none;stroke-width:0.264583;stroke-dasharray:none"
           d="m -121.76762,203.79355 a 44.724953,44.724953 0 0 0 0.38758,0.35502 44.724953,44.724953 0 0 1 -0.25012,-0.27285 44.724953,44.724953 0 0 1 -0.15244,-0.19896 44.724953,44.724953 0 0 0 0.015,0.11679 z" />
        <path
           id="path6714"
           style="opacity:1;fill:#008ea1;fill-opacity:0.541176;stroke:none;stroke-width:0.264583;stroke-dasharray:none"
           d="m -130.65803,191.79583 a 44.724953,44.724953 0 0 0 1.09657,2.10582 44.724953,44.724953 0 0 0 2.09652,3.29075 44.724953,44.724953 0 0 0 2.37505,3.09542 44.724953,44.724953 0 0 0 2.63601,2.87683 44.724953,44.724953 0 0 0 0.68626,0.6289 44.724953,44.724953 0 0 1 -0.015,-0.11679 44.724953,44.724953 0 0 1 -2.22312,-2.89646 44.724953,44.724953 0 0 1 -2.09652,-3.29076 44.724953,44.724953 0 0 1 -1.80144,-3.46077 44.724953,44.724953 0 0 1 -1.49293,-3.60495 44.724953,44.724953 0 0 1 -1.17357,-3.72122 44.724953,44.724953 0 0 1 -0.84439,-3.80907 44.724953,44.724953 0 0 1 -0.44855,-3.41012 44.724953,44.724953 0 0 0 -0.0796,1.81539 44.724953,44.724953 0 0 0 0.17054,3.89795 44.724953,44.724953 0 0 0 0.50901,3.8685 44.724953,44.724953 0 0 0 0.60513,2.73058 z" />
        <path
           id="path6710"
           style="opacity:1;fill:url(#linearGradient15665);fill-opacity:1;stroke:none;stroke-width:0.264583;stroke-dasharray:none"
           d="m -90.713698,126.9016 c -2.587278,0 -4.428091,0.1371 -6.868314,0.51263 -0.765968,0.11788 -2.694568,0.48196 -2.729548,0.51522 -0.0107,0.0102 4.308265,0.0186 9.597862,0.0186 5.289598,0 9.608712,-0.008 9.597864,-0.0186 -0.03495,-0.0333 -1.963581,-0.39734 -2.729549,-0.51522 -2.440223,-0.37553 -4.28101,-0.51263 -6.868315,-0.51263 z m -10.007662,1.0635 a 44.724953,44.724953 0 0 0 -1.6831,0.37311 44.724953,44.724953 0 0 0 -3.72122,1.17357 44.724953,44.724953 0 0 0 -3.60443,1.49293 44.724953,44.724953 0 0 0 -3.46077,1.80144 44.724953,44.724953 0 0 0 -3.29075,2.09651 44.724953,44.724953 0 0 0 -3.09542,2.37505 44.724953,44.724953 0 0 0 -2.87683,2.63602 44.724953,44.724953 0 0 0 -2.63601,2.87683 44.724953,44.724953 0 0 0 -2.37505,3.09541 44.724953,44.724953 0 0 0 -2.09652,3.29076 44.724953,44.724953 0 0 0 -1.80195,3.46077 44.724953,44.724953 0 0 0 -1.49293,3.60495 44.724953,44.724953 0 0 0 -1.17306,3.72122 44.724953,44.724953 0 0 0 -0.84491,3.80907 44.724953,44.724953 0 0 0 -0.50901,3.86849 44.724953,44.724953 0 0 0 -0.17002,3.89796 44.724953,44.724953 0 0 0 0.0124,0.28577 44.724953,44.724953 0 0 0 0.15762,3.61218 44.724953,44.724953 0 0 0 0.50901,3.8685 44.724953,44.724953 0 0 0 0.84491,3.80907 44.724953,44.724953 0 0 0 1.17306,3.72122 44.724953,44.724953 0 0 0 1.49293,3.60495 44.724953,44.724953 0 0 0 0.70538,1.35495 44.724953,44.724953 0 0 1 -0.60513,-2.73058 44.724953,44.724953 0 0 1 -0.50901,-3.8685 44.724953,44.724953 0 0 1 -0.17054,-3.89795 44.724953,44.724953 0 0 1 0.0796,-1.81539 44.724953,44.724953 0 0 1 -0.0605,-0.45837 44.724953,44.724953 0 0 1 -0.17053,-3.89796 44.724953,44.724953 0 0 1 0.17053,-3.89795 44.724953,44.724953 0 0 1 0.50902,-3.8685 44.724953,44.724953 0 0 1 0.84439,-3.80958 44.724953,44.724953 0 0 1 1.17357,-3.72071 44.724953,44.724953 0 0 1 1.49293,-3.60495 44.724953,44.724953 0 0 1 0.83975,-1.61333 44.724953,44.724953 0 0 1 0.96169,-1.84744 44.724953,44.724953 0 0 1 2.09652,-3.29075 44.724953,44.724953 0 0 1 2.37556,-3.09542 44.724953,44.724953 0 0 1 2.63602,-2.87683 44.724953,44.724953 0 0 1 2.87631,-2.63601 44.724953,44.724953 0 0 1 3.09542,-2.37505 44.724953,44.724953 0 0 1 3.29075,-2.09651 44.724953,44.724953 0 0 1 3.46077,-1.80144 44.724953,44.724953 0 0 1 3.60495,-1.49345 44.724953,44.724953 0 0 1 3.72122,-1.17306 44.724953,44.724953 0 0 1 3.80907,-0.84439 44.724953,44.724953 0 0 1 3.868498,-0.50953 44.724953,44.724953 0 0 1 3.897953,-0.17002 44.724953,44.724953 0 0 1 3.897953,0.17002 44.724953,44.724953 0 0 1 3.868498,0.50953 44.724953,44.724953 0 0 1 3.809587,0.84439 44.724953,44.724953 0 0 1 3.720703,1.17306 44.724953,44.724953 0 0 1 3.604948,1.49345 44.724953,44.724953 0 0 1 3.46077,1.80144 44.724953,44.724953 0 0 1 3.290756,2.09651 44.724953,44.724953 0 0 1 3.095418,2.37505 44.724953,44.724953 0 0 1 1.865002,1.70894 44.724953,44.724953 0 0 0 -0.595829,-0.6935 44.724953,44.724953 0 0 0 -0.911056,-0.99736 44.724953,44.724953 0 0 0 -0.941027,-0.96996 44.724953,44.724953 0 0 0 -0.96945,-0.94051 44.724953,44.724953 0 0 0 -0.997355,-0.91106 44.724953,44.724953 0 0 0 -1.024744,-0.88056 44.724953,44.724953 0 0 0 -1.051099,-0.84905 44.724953,44.724953 0 0 0 -1.075903,-0.817 44.724953,44.724953 0 0 0 -1.100191,-0.78445 44.724953,44.724953 0 0 0 -1.122929,-0.75034 44.724953,44.724953 0 0 0 -1.145667,-0.71624 44.724953,44.724953 0 0 0 -1.166337,-0.68161 44.724953,44.724953 0 0 0 -1.187007,-0.64544 44.724953,44.724953 0 0 0 -1.205095,-0.60978 44.724953,44.724953 0 0 0 -1.223698,-0.57309 44.724953,44.724953 0 0 0 -1.240234,-0.53589 44.724953,44.724953 0 0 0 -1.255737,-0.49816 44.724953,44.724953 0 0 0 -1.270207,-0.45992 44.724953,44.724953 0 0 0 -1.283643,-0.42116 44.724953,44.724953 0 0 0 -1.296045,-0.38241 44.724953,44.724953 0 0 0 -1.30638,-0.34313 44.724953,44.724953 0 0 0 -0.645955,-0.14883 z" />
      </g>
      <text
         xml:space="preserve"
         style="font-weight:bold;font-size:16.6752px;font-family:Arial;-inkscape-font-specification:'Arial Bold';text-align:justify;fill:#008fa0;fill-opacity:1;stroke-width:0.685391"
         x="264.07071"
         y="145.96413"
         id="text1"><tspan
           sodipodi:role="line"
           id="tspan1"
           style="font-style:normal;font-variant:normal;font-weight:bold;font-stretch:normal;font-family:'Zapf Dingbats';-inkscape-font-specification:'Zapf Dingbats Bold';fill:#008fa0;fill-opacity:1;stroke-width:0.685391"
           x="264.07071"
           y="145.96413">EAGLE-RP</tspan></text>
    </g>
  </g>
</svg>
